<?xml version="1.0" encoding="UTF-8"?>
<svg id="Capa_1" data-name="Capa 1" xmlns="http://www.w3.org/2000/svg" viewBox="0 0 101.44 142.95">
  <defs>
    <style>
      .cls-1 {
        fill: #fff;
        stroke-width: 0px;
      }
    </style>
  </defs>
  <path class="cls-1" d="m50.9,27.99c15.91,0,31.83,0,47.74,0,3,0,2.94,0,2.69,2.88-1.2,13.5-2.34,27.01-3.55,40.51-1.19,13.26-2.45,26.52-3.65,39.78-.56,6.19-1.11,12.39-1.56,18.59-.1,1.32-.46,1.91-1.82,2.28-12.92,3.53-25.82,7.15-38.71,10.76-.96.27-1.85.19-2.81-.08-12.59-3.5-25.19-7-37.8-10.42-1.71-.46-2.33-1.19-2.46-3.06-.72-9.86-1.64-19.71-2.52-29.56-1.04-11.67-2.12-23.34-3.18-35.01C2.2,52.99,1.2,41.31.02,29.65c-.23-2.25,1.14-1.64,2.18-1.64,15.59-.02,31.19-.02,46.78-.02.64,0,1.28,0,1.92,0Zm-.13,59.83c0,5.71.02,11.43,0,17.14,0,.9.35,1.94-.64,2.62-3.32-.84-6.61-1.83-9.97-2.46-2.74-.52-4.23-1.6-3.9-4.67.17-1.55-.36-3.16-.38-4.75-.02-1.36-.54-1.78-1.87-1.75-2.96.08-5.92.14-8.87-.02-1.85-.1-2.33.48-2.13,2.27.56,5.23,1.05,10.47,1.41,15.71.11,1.57.77,2.18,2.19,2.57,8.08,2.18,16.13,4.43,24.19,6.66,0,3.75.07,7.5-.04,11.25-.05,1.67.49,1.82,1.94,1.39,4.04-1.19,8.12-2.23,12.18-3.34,5.82-1.6,11.65-3.19,17.47-4.81,1.05-.29,1.99-.53,2.12-2.08.51-6.23,1.26-12.44,1.82-18.67.56-6.24.97-12.48,1.51-18.72.59-6.94,1.25-13.88,1.87-20.82.36-4.03.59-8.07,1.09-12.07.6-4.88.98-9.77,1.33-14.67.11-1.57-.46-2.07-2.04-2.06-12.39.05-24.78.06-37.17,0-1.77,0-2.15.67-2.11,2.25.08,3.43.01,6.86,0,10.29-.55.04-1.11.11-1.66.11-9.33,0-18.67.04-28-.03-1.69-.01-2.25.45-2.03,2.15.36,2.84.66,5.69.78,8.55.07,1.8.81,2.15,2.49,2.14,9.49-.06,18.98.02,28.48.04,0,4.25,0,8.51,0,12.76-.88.04-1.75.11-2.63.11-8.24,0-16.48.04-24.71-.02-1.64-.01-2.46.07-2.08,2.16.48,2.65.61,5.4.63,8.1.01,2.12.82,2.63,2.87,2.61,8.63-.08,17.27.02,25.9.06Z"/>
  <path class="cls-1" d="m49.99,19.54c-1.92,0-3.84-.06-5.75.02-1.26.06-1.82-.19-1.84-1.65-.05-4.22-.13-4.22,4.04-4.22,1.28,0,2.56,0,3.83,0,.38,0,.89.05.95-.45.09-.75-.55-.61-.98-.61-2.16-.02-4.31-.06-6.47.01-1.06.04-1.37-.33-1.35-1.36.05-3.19.09-6.38-.01-9.57-.04-1.4.45-1.74,1.77-1.71,3.91.08,7.83.07,11.74,0,1.29-.02,1.96.25,1.78,1.69-.1.79-.08,1.6,0,2.39.12,1.18-.38,1.51-1.51,1.47-2.07-.07-4.15-.03-6.23-.01-.46,0-1.09-.05-1.06.62.03.63.66.58,1.12.58,2,.01,3.99.06,5.99-.01,1.16-.04,1.74.17,1.7,1.54-.09,3.27-.07,6.54,0,9.81.02,1.14-.33,1.55-1.49,1.51-2.07-.08-4.15-.02-6.23-.02Z"/>
  <path class="cls-1" d="m69.67,12.61c-2.46,0-4.92-.05-7.38.02-1.12.03-1.52-.25-1.49-1.44.08-3.27.06-6.54,0-9.81-.02-1.02.27-1.39,1.34-1.38,4.23.05,8.47.06,12.7,0,1.22-.02,1.53.46,1.42,1.54-.06.55-.08,1.13,0,1.67.27,1.8-.31,2.48-2.27,2.37-2.22-.12-4.51-.35-6.91.24.92,1.36,1.97.81,2.85.89,2.04.19,4.84-.88,5.93.42,1.04,1.24.34,3.93.37,5.99.03,1.59-.07,3.19.03,4.78.08,1.22-.24,1.69-1.56,1.66-4.07-.08-8.15-.09-12.22,0-1.42.03-1.69-.5-1.7-1.8-.02-4.08-.08-4.04,3.95-4.09,1.65-.02,3.36.3,4.95-.27-.01-.27-.02-.53-.03-.8Z"/>
  <path class="cls-1" d="m23.92,9.5c0-2.63.06-5.26-.03-7.89-.05-1.28.4-1.62,1.63-1.6,4.07.07,8.15.08,12.22,0,1.29-.03,1.56.4,1.58,1.62.07,4.78.12,4.78-4.64,4.78-4.37,0-5.33,1.26-4.37,5.55.24,1.08.95.89,1.62.9,2,.03,3.99.05,5.99,0,1.01-.03,1.32.29,1.39,1.34.34,5.11.38,5.1-4.76,5.1-2.8,0-5.6-.1-8.38.04-1.72.09-2.43-.29-2.29-2.18.18-2.54.05-5.1.05-7.65Z"/>
  <path class="cls-1" d="m50.76,49.07c0-3.43.08-6.86,0-10.29-.04-1.58.34-2.26,2.11-2.25,12.39.07,24.78.06,37.17,0,1.57,0,2.15.5,2.04,2.06-.35,4.9-.73,9.79-1.33,14.67-.5,4.01-.73,8.05-1.09,12.07-.62,6.94-1.28,13.88-1.87,20.82-.53,6.24-.94,12.49-1.51,18.72-.56,6.23-1.31,12.44-1.82,18.67-.13,1.55-1.06,1.79-2.12,2.08-5.82,1.62-11.64,3.22-17.47,4.81-4.06,1.11-8.14,2.16-12.18,3.34-1.45.43-1.99.28-1.94-1.39.11-3.75.04-7.5.04-11.25.05-.08.05-.16,0-.24.7-.12,1.41-.19,2.09-.38,7.14-1.96,14.24-4.06,21.42-5.86,2.15-.54,2.68-1.65,2.84-3.58.85-10.24,1.77-20.47,2.68-30.7.85-9.6,1.68-19.19,2.62-28.78.19-1.9-.38-2.46-2.27-2.43-7.42.09-14.85,0-22.28.05-2.39.01-4.78-.24-7.16.18.02-.11.03-.22.02-.34Z"/>
  <path class="cls-1" d="m50.78,107.99c-.22-.13-.44-.27-.66-.4,1-.68.64-1.72.64-2.62.03-5.71.01-11.43,0-17.14,0-.09,0-.18-.03-.26,4.97.08,9.94.17,14.91.25.16.17.33.33.49.5-.35,4.84-.73,9.68-1.04,14.52-.08,1.3-1,1.47-1.92,1.73-4.13,1.15-8.27,2.29-12.4,3.43Z"/>
  <path class="cls-1" d="m50.8,74.8c0-4.25,0-8.51,0-12.76l-.04-.18c5.28.03,10.56.14,15.83.03,1.82-.04,2.15.6,1.95,2.19-.37,2.93-.73,5.87-.85,8.81-.07,1.73-.74,2.08-2.32,2.06-4.87-.06-9.75.04-14.63.08.03-.08.05-.15.05-.24Z"/>
  <path class="cls-1" d="m65.65,87.81c.37-.03.54.12.49.5-.16-.17-.33-.33-.49-.5Z"/>
</svg>