<?xml version="1.0" encoding="UTF-8"?>
<svg id="Capa_1" data-name="Capa 1" xmlns="http://www.w3.org/2000/svg" viewBox="0 0 109.61 109.78">
  <defs>
    <style>
      .cls-1 {
        fill: #fff;
        stroke-width: 0px;
      }
    </style>
  </defs>
  <path class="cls-1" d="m51.11,0c2.77,0,5.53,0,8.3,0,2.14.7,4.41.65,6.58,1.18,19.89,4.83,33.69,16.65,40.52,36.02,4.84,13.71,3.93,27.34-2.1,40.58-4.7,10.32-11.91,18.56-21.76,24.07-19.7,11.04-39.45,10.65-58.4-1.7C9.73,90.69,1.84,76.76.25,59.52c-1.34-14.52,2.69-27.65,11.84-39.02C20.56,9.97,31.55,3.46,44.86.97,46.93.58,49.02.32,51.11,0Zm3.99,57.77c1.9,6.12,8.35,9.53,14.12,7.46,5.69-2.04,8.75-7.86,6.98-13.61-1.39-4.52-4.69-6.95-9.27-7.76.85-.21,1.73-.33,2.53-.65,5.1-2.01,8.01-7.13,7.04-12.29-1-5.31-5.47-8.98-11.03-8.99-7.13-.01-14.27.02-21.4.05-1.1,0-2.18.1-3.28.4-4.56,1.24-7.99,5.93-7.92,10.39.07,4.91,2.95,8.96,7.73,10.53.37.12.82.11.97.59-2.78.93-5.27,2.22-6.98,4.76-3.33,4.94-2,12.46,3.49,15.59,1.12.64,2.42.8,3.47,1.56-.28.42-.79.38-1.18.51-5.51,1.85-8.6,7.1-7.28,12.89,1.24,5.46,5.86,8.69,11.03,8.48,5.88-.23,10.38-4.6,10.67-10.29.19-3.82,0-7.66,0-11.5.02-2.31.03-4.61.08-6.92,0-.41-.23-.9.26-1.22Z"/>
  <path class="cls-1" d="m62.92,44.13c-3.83,1.25-6.5,3.69-7.79,7.55-.48-.31-.28-.81-.28-1.22-.03-2.18-.02-4.36-.02-6.54,2.47-.02,4.94-.04,7.41-.06.25,0,.54-.04.68.27Z"/>
</svg>