<?xml version="1.0" encoding="UTF-8"?>
<svg xmlns="http://www.w3.org/2000/svg" viewBox="0 0 422.21 388.64">
  <defs>
    <style>
      .cls-1 {
        fill: #4f4e4e;
      }

      .cls-1, .cls-2, .cls-3, .cls-4 {
        stroke-width: 0px;
      }

      .cls-2 {
        fill: #d9d9d9;
      }

      .cls-5 {
        fill: none;
        stroke: #55c1f0;
        stroke-miterlimit: 10;
        stroke-width: 6px;
      }

      .cls-3 {
        fill: #55c1f0;
      }

      .cls-4 {
        fill: #4aa2da;
      }
    </style>
  </defs>
  <g id="Capa_1" data-name="Capa 1">
    <polygon class="cls-2" points="125.36 310.63 278.06 388.64 422.21 266.66 257.46 160.29 125.36 310.63"/>
    <polygon class="cls-3" points="180.82 169.61 164.5 82.46 236.27 82.46 180.82 169.61"/>
    <polygon class="cls-3" points="148.19 218.54 8.39 70.35 0 84.33 148.19 218.54"/>
    <polygon class="cls-3" points="74.1 238.58 68.5 198.97 143.07 226.93 74.1 238.58"/>
    <polygon class="cls-5" points="150.52 205.21 143.07 7.43 58.72 3.24 150.52 205.21"/>
    <polygon class="cls-3" points="82.95 18.15 131.88 22.81 140.74 160.29 82.95 18.15"/>
  </g>
  <g id="Capa_2" data-name="Capa 2">
    <polygon class="cls-1" points="177.42 349.03 388.62 327.12 397.05 219.47 209.64 160.29 125.36 277.26 177.42 349.03"/>
    <path class="cls-4" d="m383.65,233.66c1.92,1.62,2.97,3.85,4.22,5.94.5.83,1.12,1.59,1.94,2.17,1.48,1.04,1.79,2.84.81,4.37-.27.42-.64.64-1.18.52-1.75-.41-3.13-1.28-3.86-3-.67-1.57-1.57-3.01-2.46-4.47-1.36-2.24-3.4-2.76-5.78-2.58-1.97.15-3.75.92-5.47,1.82-2.6,1.37-5.17,2.8-7.8,4.14-10.64,5.42-21.12,11.16-31.92,16.27-10.26,4.85-20.46,9.84-30.9,14.28-3.75,1.59-7.4,3.37-11.05,5.19-2.27,1.13-3.12,2.92-3.22,5.28-.18,4.16-.02,8.32.23,12.46.22,3.63.25,7.26.12,10.89-.08,2.29-.49,4.52-1.62,6.55-1.27,2.3-3.2,3.86-5.62,4.86-3.81,1.57-7.82,1.77-11.86,1.78-6.44.03-12.64-1.36-18.75-3.24-2.28-.7-4.45-1.62-6.53-2.79-1.63-.92-3.1-2.04-4.5-3.26-3.55-3.08-6.25-6.84-8.54-10.91-2.21-3.94-4.15-8.01-6.11-12.09-2.22-4.62-3.91-9.43-5.8-14.17-.39-.98-.77-1.97-1.39-2.84-.85-1.2-2.03-1.78-3.48-1.86-.43-.02-.72.07-.37.55,2.57,3.51,2.54,7.44,1.97,11.5-.6,4.28-1.53,8.48-3.14,12.49-.83,2.06-1.73,4.08-3.18,5.81-2.2,2.61-5.01,3.3-8.24,2.62-1.71-.36-3.4-.86-5-1.58-.12-.05-.24-.11-.37-.03l-4.5-2.42c-.87-.84-1.93-1.43-2.85-2.2-3.2-2.66-5.73-5.85-7.86-9.39-2.95-4.9-4.96-10.2-6.77-15.59-1.23-3.68-2.14-7.45-3.26-11.15-1.27-4.18-2.02-8.47-2.85-12.75-.15-.78-.25-1.59-.08-2.38.24-1.08,1.1-1.49,2.03-1.65,3.48-.6,6.75-1.86,10.08-2.99,3.76-1.28,7.51-2.58,11.27-3.88,5.93-2.05,11.82-4.21,17.79-6.15,6.51-2.11,12.96-4.39,19.48-6.45,2.88-.91,5.74-1.91,8.62-2.8,5.67-1.76,11.34-3.5,17.03-5.19,3.08-.91,6.23-1.51,9.46-1.46,4.82.07,9.55.78,14.15,2.28,3.81,1.24,7.52,2.69,11.15,4.39,4.74,2.23,9.49,4.44,14.25,6.63.76.35,1.1.75.78,1.6-.21.58-.29,1.2-.44,1.8-.16.61-.51.88-1.15.61-1.11-.48-2.12-1.14-3.23-1.65-5.35-2.45-10.64-5.01-16.08-7.26-3.85-1.58-7.75-2.96-11.86-3.7-2.81-.51-5.63-.61-8.48-.52-4.14.13-8.03,1.34-11.9,2.61-2.65.87-5.29,1.77-7.93,2.66-2.33.78-4.64,1.61-6.98,2.34-7.93,2.48-15.7,5.46-23.54,8.19-1.93.67-3.82,1.43-5.76,2.07-6.89,2.26-13.6,5-20.37,7.59-1.01.38-2.01.78-3.21,1.24,1.21.49,2.21.91,3.23,1.3,2.79,1.07,5.54,2.25,8.27,3.48,2.66,1.21,5.26,2.53,7.78,4,2.65,1.54,5.41,2.94,7.63,5.11,3.1,3.02,6.77,3.49,10.59,2.03,4.21-1.61,8.52-2.24,12.97-2.15,9.4.19,18.68,1.39,27.85,3.38,5.01,1.09,10.01,2.23,14.89,3.85,2.16.72,4.28,1.56,6.28,2.62,3.93,2.08,7.85,2.13,11.93.47,3.95-1.6,7.94-3.1,11.95-4.54,8.59-3.08,16.83-6.93,25.11-10.72,1.69-.77,3.34-1.63,5.04-2.38,8.57-3.8,16.76-8.35,25.15-12.5,2.08-1.03,4.1-2.2,6.22-3.14,2.65-1.18,5.2-2.62,8.13-3.12,2.21-.38,4.4-.61,6.58.12.06.02.15-.02.22-.03.68.37,1.37.73,2.05,1.1Zm-138.97,77.33c3.99,2.16,7.58,3.27,11.24,4.17,4.77,1.16,9.62,1.61,14.51,1.5,3.41-.08,6.79-.4,10.1-1.34,1.49-.42,2.32-1.37,2.56-2.86.4-2.47.43-4.95.25-7.46-.3-4.15-.64-8.28-1.18-12.4-.64-4.84-1.41-9.65-2.43-14.43-.64-2.97-2.12-5.39-4.81-6.98-2.21-1.31-4.56-2.3-6.98-3.11-5.83-1.95-11.81-3.33-17.86-4.34-5.55-.93-11.14-1.56-16.76-1.84-3.24-.16-6.45-.05-9.56,1.02-1.54.53-2.16,1.28-2.22,2.8-.04,1.05.15,2.05.66,2.98.67,1.21,1.62,2.2,2.56,3.19,1.65,1.74,3.43,3.37,4.96,5.21,2.37,2.86,3.47,6.32,4.11,9.91.6,3.3,1.06,6.63,1.61,9.94.41,2.45.95,4.87,2.15,7.08,1.78,3.29,4.42,5.66,7.1,6.96Zm-51.26-56.86c-1.5-.76-2.98-1.54-4.49-2.27-3.59-1.73-7.26-3.22-11.09-4.31-2.22-.63-2.77-.5-4.32,1.68-1.31,1.85-1.4,3.93-1.02,6.07.51,2.82,1.07,5.63,1.82,8.4,1.71,6.28,3.48,12.51,6.49,18.35,3.7,7.18,9,12.58,16.4,15.86,1.87.83,3.84,1.37,5.91,1.43,1.38.04,2.32-.67,2.85-1.96.71-1.71.87-3.51.91-5.31.12-5.72.09-11.44-.57-17.15-.3-2.61-.49-5.24-.86-7.85-.48-3.37-1.93-6.17-4.65-8.29-2.31-1.8-4.78-3.33-7.39-4.66Z"/>
  </g>
</svg>