<?xml version="1.0" encoding="UTF-8"?>
<svg id="Capa_1" data-name="Capa 1" xmlns="http://www.w3.org/2000/svg" viewBox="0 0 120.53 119.01">
  <defs>
    <style>
      .cls-1 {
        fill: #fff;
        stroke-width: 0px;
      }
    </style>
  </defs>
  <path class="cls-1" d="m120.53,66.39c-.16.9-.38,1.79-.46,2.69-.39,4.31-1.45,8.48-2.88,12.54-1.52,4.32-3.45,8.48-6.08,12.23-2.03,2.88-4.23,5.65-6.45,8.39-3.47,4.28-7.77,7.61-12.35,10.55-3.96,2.55-8.23,4.5-12.7,5.98-2.58.85-4.51-.59-4.51-3.32,0-5.82.05-11.65-.02-17.47-.04-3.78-1.14-7.2-4.01-10.14.94-.19,1.74-.42,2.56-.51,4.32-.48,8.4-1.71,12.25-3.79,3.96-2.14,7.18-5.01,9.2-9.08,1.66-3.34,2.76-6.9,3.08-10.65.19-2.14.49-4.3.44-6.44-.13-5.7-1.93-10.81-5.64-15.19-.29-.35-.32-1.05-.25-1.56.28-2.15.84-4.28.93-6.44.11-2.82-.66-5.54-1.65-8.16-.14-.36-.81-.7-1.25-.73-2.62-.14-5,.81-7.28,1.94-2.54,1.26-4.96,2.79-7.49,4.08-.57.29-1.43.25-2.07.08-3.94-1.06-7.94-1.51-12.01-1.65-5.44-.18-10.74.48-16.02,1.76-.72.17-1.74-.41-2.46-.88-3.68-2.37-7.62-4.14-11.84-5.25-2.24-.59-2.88-.27-3.54,1.9-.86,2.82-1.44,5.69-1.15,8.65.15,1.57.54,3.13.98,4.65.22.76.11,1.2-.38,1.78-3.13,3.75-4.97,8.04-5.36,12.97-.56,6.96.52,13.56,3.76,19.78,1.89,3.62,4.8,6.12,8.22,8.17,3.6,2.16,7.56,3.16,11.58,4,1.2.25,2.44.27,3.92.43-2.44,2.43-3.63,5.18-3.98,8.33-2.02.98-4.15,1.31-6.35,1.57-3.01.35-5.48-.49-7.87-2.2-1.74-1.25-2.68-3.08-3.83-4.77-1.82-2.66-4.17-4.6-7.25-5.5-1.42-.42-2.91-.49-4.32.31.65,1.84,2.19,2.66,3.54,3.62,1.81,1.27,2.94,3.08,3.99,4.93.78,1.38,1.38,2.86,2.05,4.3,1.66,3.59,4.6,5.51,8.33,6.09,2.64.41,5.34.44,8.02.49,1.13.02,2.26-.31,3.52-.49v7.6c0,1.15-.03,2.3,0,3.45.11,3.06-1.99,4.14-4.62,3.28-3.95-1.29-7.69-3.06-11.3-5.17-4.64-2.7-8.77-6.01-12.45-9.87-3.98-4.16-7.35-8.79-10.09-13.9-2.45-4.56-4.31-9.34-5.43-14.38-.61-2.76-.88-5.6-1.32-8.4-.03-.21-.15-.4-.23-.6,0-3.57,0-7.13,0-10.7.08-.12.21-.23.22-.36.25-1.93.41-3.87.73-5.79.84-5.07,2.41-9.92,4.61-14.55,2.1-4.43,4.69-8.54,7.74-12.39,2.58-3.26,5.45-6.23,8.64-8.84,4.06-3.33,8.5-6.09,13.28-8.32C42,2.25,49.14.57,56.55.11c4.81-.3,9.61,0,14.4.84,5.73,1,11.16,2.8,16.33,5.4,4.38,2.21,8.45,4.92,12.17,8.18,3.09,2.7,5.99,5.6,8.46,8.87,3.05,4.05,5.7,8.36,7.7,13.07,2.22,5.24,3.81,10.62,4.45,16.29.11.98.31,1.95.46,2.93v10.7Z"/>
</svg>