<?xml version="1.0" encoding="UTF-8"?>
<svg id="Capa_1" data-name="Capa 1" xmlns="http://www.w3.org/2000/svg" viewBox="0 0 300 316.55">
  <defs>
    <style>
      .cls-1 {
        fill: #fff;
        stroke-width: 0px;
      }
    </style>
  </defs>
  <path class="cls-1" d="m155.4,219.19c13.49,0,26.98.03,40.47-.04,1.84,0,2.34.32,2.14,2.33-1.43,14.82-2.7,29.66-4.02,44.49-1.15,13.03-2.32,26.06-3.41,39.09-.13,1.53-.82,2.12-2.21,2.5-10.63,2.88-21.25,5.81-31.86,8.78-1.05.29-1.95.24-2.98-.05-10.53-2.94-21.07-5.87-31.64-8.71-1.58-.43-2.07-1.22-2.21-2.76-1.9-22.06-3.85-44.12-5.79-66.18-.51-5.81-.97-11.62-1.63-17.41-.2-1.78.32-2.1,1.95-2.09,13.73.06,27.45.03,41.18.03Zm-27.19,19.8c.96,9.56,1.87,19.12,2.64,28.69.14,1.76.65,2.17,2.35,2.15,7.33-.07,14.65.02,21.98.04-.01,5.49-.03,10.98-.04,16.47-.33.02-.66.04-.99.06-1.75-.43-3.51-.82-5.24-1.29q-5.6-1.53-6.19-7.37c-.04-.39-.14-.78-.14-1.17.03-1.33-.63-1.66-1.89-1.61-2.51.1-5.04.11-7.55,0-1.45-.06-1.68.47-1.54,1.78.48,4.3.94,8.6,1.2,12.91.11,1.75.58,2.53,2.4,3,6.69,1.72,13.31,3.69,19.96,5.57,0,2.92.06,5.84-.02,8.76-.04,1.63.21,2.26,2.11,1.71,8.23-2.34,16.5-4.54,24.77-6.74,1.44-.38,1.92-1.46,1.95-2.62.09-4.17.7-8.28,1.02-12.42.33-4.22.63-8.44,1-12.66.59-6.71,1.23-13.41,1.84-20.12.38-4.21.76-8.43,1.14-12.64.41-4.45.79-8.89,1.24-13.34.16-1.63-.6-1.97-2.07-1.97-10.34.05-20.68.05-31.01,0-1.6,0-2.04.57-1.99,2.07.09,2.92.04,5.84.04,8.76-8.35.03-16.7.09-25.05.06"/>
  <path class="cls-1" d="m168.89,204.09c-1.44,2.18-2.5,3.79-3.73,5.65-1.17-1.74-2.24-3.32-3.69-5.48,0,2.46-.08,4.24.02,6,.07,1.31-.3,1.75-1.69,1.76-3.86,0-3.86.08-3.86-3.82,0-3.71.06-7.42-.03-11.12-.04-1.38.45-1.58,1.72-1.7,2.94-.28,5.22.29,6.29,3.4.22.64.73,1.19,1.27,2.02.95-1.5,1.87-2.79,2.62-4.18.47-.87,1.01-1.19,2.01-1.22,4.73-.13,4.73-.17,4.73,4.55,0,3.39-.06,6.79.03,10.17.04,1.39-.26,1.91-1.79,1.9-3.89-.04-3.89.05-3.89-3.75,0-1.17,0-2.34,0-4.19Z"/>
  <path class="cls-1" d="m120.12,203.58c0-2.13.11-4.27-.04-6.38-.1-1.51.41-2,1.83-1.77.38.06.8.07,1.18,0,2.38-.47,3.01.61,2.73,2.8-.1.76-.56,2.07.38,2.33,1.24.35,2.79.43,3.95-.02.94-.37.21-1.85.42-2.81.16-.76-.56-2.03.58-2.19,1.59-.22,3.28-.37,4.87.15.19.06.19.85.19,1.3.01,4.42-.07,8.83.05,13.24.04,1.53-.46,1.98-1.86,1.76-.31-.05-.64-.06-.94,0-2.34.43-3.3-.42-2.94-2.87.13-.86.54-2.3-.3-2.61-1.18-.43-2.67-.35-3.95-.1-1.01.2-.35,1.34-.49,2.04-.22,1.13.59,2.88-.41,3.3-1.35.56-3.09.23-4.66.2-.87-.02-.59-.79-.6-1.28-.03-2.37-.01-4.73-.01-7.1Z"/>
  <path class="cls-1" d="m146.09,195.44c1.89,0,3.79.13,5.66-.04,1.75-.15,2.22.53,1.98,2.11-.07.46-.07.95,0,1.41.23,1.6-.32,2.41-2.03,2.09-2.28-.43-3.01.45-2.77,2.74.22,2.1-.02,4.24.07,6.36.06,1.34-.18,1.93-1.75,1.92-4.08-.03-4.08.07-4.08-4.04,0-1.73-.1-3.47.03-5.19.12-1.5-.43-1.89-1.85-1.84-.93.03-2.44.63-2.74-.46-.41-1.45-.2-3.12-.06-4.67.07-.7.92-.38,1.41-.39,2.04-.03,4.09-.01,6.13-.01Z"/>
  <path class="cls-1" d="m176.97,203.53c0-1.57-.08-3.15.03-4.72.08-1.11-.7-2.79.45-3.21,1.38-.51,3.1-.21,4.67-.11.81.05.5.85.5,1.33.03,2.52.14,5.04-.03,7.55-.11,1.74.52,2.22,2.1,1.98.62-.09,1.26-.01,1.88-.01,3.94,0,4.53.78,3.81,4.73-.16.89-.6.94-1.28.93-3.62-.01-7.23-.04-10.85.02-1.09.02-1.32-.44-1.3-1.4.05-2.36.02-4.72.02-7.08Z"/>
  <path class="cls-1" d="m155.18,237.02c0-2.92.05-5.84-.04-8.76-.05-1.5.39-2.08,1.99-2.07,10.34.06,20.68.05,31.01,0,1.47,0,2.24.33,2.07,1.97-.44,4.44-.83,8.89-1.24,13.34-.38,4.21-.76,8.43-1.14,12.64-.61,6.71-1.25,13.41-1.84,20.12-.37,4.22-.67,8.44-1,12.66-.33,4.14-.94,8.26-1.02,12.42-.02,1.16-.51,2.23-1.95,2.62-8.27,2.2-16.54,4.4-24.77,6.74-1.9.54-2.16-.09-2.11-1.71.08-2.92.02-5.84.02-8.76.32-.16.64-.33.95-.49,6.67-1.79,13.34-3.59,20.01-5.38.88-.24,1.19-.77,1.27-1.69.87-10.1,1.77-20.21,2.72-30.3.11-1.2-.25-1.5-1.37-1.49-7.87.06-15.74.07-23.61.1l.04-.17c0-3.57,0-7.14,0-10.72,0,0-.04-.17-.04-.17,7.73.03,15.46-.03,23.19.14,2.1.04,3.12-.28,3.09-2.65-.03-2.27.36-4.55.65-6.82.15-1.15-.19-1.5-1.37-1.49-8.52.07-17.04.08-25.55.11l.04-.17Z"/>
  <path class="cls-1" d="m155.15,286.34c.01-5.49.03-10.98.04-16.47,0,0-.04-.17-.04-.17,3.92.03,7.84.07,11.76.08.87,0,1.45,0,1.3,1.23-.43,3.66-.74,7.33-1.02,11-.09,1.2-.53,1.75-1.75,2.04-3.35.78-6.67,1.73-10,2.62-.1-.11-.2-.22-.3-.32Z"/>
  <path class="cls-1" d="m155.18,286.88c-.34-.16-.68-.32-1.02-.47.33-.02.66-.04.99-.06.1.11.2.22.3.32-.08.08-.17.15-.27.21Z"/>
  <path class="cls-1" d="m155.19,258.81c-4.24.03-8.47.03-12.71.11-1.03.02-1.54-.19-1.61-1.37-.17-2.74-.48-5.46-.78-8.19-.11-.97.12-1.39,1.21-1.37,4.63.08,9.26.08,13.88.11,0,3.57,0,7.14,0,10.72Z"/>
</svg>