<?xml version="1.0" encoding="UTF-8"?>
<svg id="Capa_1" data-name="Capa 1" xmlns="http://www.w3.org/2000/svg" viewBox="0 0 125.32 125.26">
  <defs>
    <style>
      .cls-1 {
        fill: #fff;
        stroke-width: 0px;
      }
    </style>
  </defs>
  <path class="cls-1" d="m62.83,125.25c-13.35,0-26.7.04-40.05-.02-4.88-.02-9.56-.65-13.58-4.01C3.34,116.32.1,110.26.09,102.6c-.02-23.85-.04-47.7.02-71.55,0-4.52-.46-9.08.51-13.57C2.8,7.38,11.71.04,22.01.03c27.06-.04,54.12-.04,81.18,0,12.05.02,21.95,9.71,22,21.81.12,27.32.24,54.65-.05,81.96-.14,12.69-10.35,21.18-20.91,21.32-13.79.19-27.59.05-41.39.05,0,.03,0,.05,0,.08Zm14.39-33.84c1.6,0,3.21-.07,4.8.02,1.44.08,1.71-.41,1.17-1.69-1.04-2.45-2-4.93-2.99-7.4-6.24-15.57-12.5-31.14-18.69-46.73-.56-1.42-1.2-2.12-2.85-2.02-2.75.15-5.52.13-8.27,0-1.6-.07-2.33.52-2.89,2-2.37,6.32-4.89,12.58-7.34,18.87-4.52,11.58-9.01,23.17-13.57,34.73-.66,1.68-.55,2.38,1.51,2.26,2.66-.15,5.34-.12,8,0,1.59.08,2.38-.43,2.88-2,.99-3.13,2.28-6.16,3.31-9.27.47-1.41,1.18-1.92,2.69-1.89,4.36.1,8.72.01,13.07.04,2.57.01,5.6-.72,7.59.38,2.15,1.19,2.25,4.6,3.24,7.05,2.27,5.63,2.23,5.65,8.34,5.65Zm22.21-20.88c0-6.31-.04-12.62.03-18.93.02-1.55-.28-2.25-2.03-2.13-2.39.16-4.8.11-7.19,0-1.54-.07-1.98.5-1.97,2,.04,12.71.04,25.41,0,38.12,0,1.38.44,1.89,1.83,1.85,2.49-.08,4.98-.11,7.46.01,1.58.08,1.92-.53,1.9-1.99-.07-6.31-.03-12.62-.03-18.93Zm-5.63-26.68c3.27.03,5.57-2.03,5.63-5.02.05-3.04-2.18-5.17-5.44-5.19-3.2-.02-5.66,2.14-5.7,5.02-.04,2.93,2.33,5.17,5.51,5.19Z"/>
  <path class="cls-1" d="m54.33,47.28c.99,2.6,1.78,4.63,2.54,6.68,1.58,4.24,3.12,8.49,4.73,12.72.42,1.09.67,1.82-.99,1.79-4.18-.06-8.36-.05-12.54,0-1.15.01-1.37-.33-.97-1.39,2.36-6.4,4.68-12.81,7.23-19.79Z"/>
</svg>