<?xml version="1.0" encoding="UTF-8"?>
<svg id="Capa_1" data-name="Capa 1" xmlns="http://www.w3.org/2000/svg" viewBox="0 0 164.65 162.77">
  <defs>
    <style>
      .cls-1 {
        fill: #fff;
        stroke-width: 0px;
      }
    </style>
  </defs>
  <path class="cls-1" d="m82.08,162.75c-14.65,0-29.3.04-43.94,0-21.42-.06-37.57-15.33-37.86-36.76-.4-29.63-.36-59.26-.02-88.89C.52,15.39,16.6.06,38.32.03c29.3-.04,58.59-.04,87.89,0,22.46.03,38.39,15.9,38.41,38.25.03,28.8.03,57.6,0,86.4-.03,22.04-16.02,38.01-38.09,38.07-14.81.04-29.63,0-44.44,0Zm0-26.95c29.9.11,54.46-24.16,54.57-53.94.11-29.92-23.99-54.38-53.89-54.68-29.65-.31-54.27,24.05-54.59,54-.32,29.69,24.18,54.52,53.91,54.63ZM149.8,27.09c-.06-6.63-5.38-12.01-11.94-12.09-6.7-.08-12.29,5.58-12.22,12.36.07,6.64,5.37,11.98,11.98,12.05,6.8.08,12.25-5.43,12.18-12.32Z"/>
  <path class="cls-1" d="m115.78,81.72c-.05,18.34-14.97,33.21-33.33,33.22-18.52,0-33.64-15.15-33.53-33.62.1-18.19,15.28-33.3,33.44-33.31,18.47,0,33.46,15.12,33.41,33.71Z"/>
</svg>