<?xml version="1.0" encoding="UTF-8"?>
<svg id="Capa_1" data-name="Capa 1" xmlns="http://www.w3.org/2000/svg" viewBox="0 0 172.31 320.42">
  <defs>
    <style>
      .cls-1 {
        fill: #fff;
        stroke-width: 0px;
      }
    </style>
  </defs>
  <path class="cls-1" d="m153.91,297.02c-1.17.87-2.17,1.66-3.21,2.39-5.02,3.52-10.58,4.65-16.59,3.63-6.64-1.13-10.53-5.53-10.93-12.34-.43-7.19,2.84-12.62,9.4-15.6,4.2-1.9,8.66-2.6,13.22-2.8,1.92-.09,3.85-.08,5.77-.06.71,0,.98-.22.95-.95-.08-1.83.1-3.66-.15-5.49-.52-3.78-2.47-5.97-6.21-6.73-4.74-.96-9.39-.19-13.99,1-1.33.34-2.64.76-3.93,1.21-.63.22-1,.25-1.16-.54-.34-1.61-.73-3.21-1.13-4.81-.14-.55.01-.83.54-1.05,8.32-3.38,16.87-5.05,25.77-2.94,6.45,1.53,10.13,6.04,10.46,12.64.21,4.16.1,8.33.11,12.5.01,7.97-.02,15.94.03,23.91,0,1.04-.21,1.44-1.34,1.38-1.87-.1-3.76-.09-5.63,0-.96.04-1.27-.32-1.36-1.21-.14-1.35-.39-2.68-.61-4.16Zm-1.4-12.11c0-1.74,0-3.48,0-5.22,0-.51-.04-.89-.71-.89-3.98.03-7.98-.19-11.87.93-4.75,1.37-6.74,4.22-6.41,9.16.27,4.02,2.83,6.57,6.86,6.84,3.98.27,7.26-1.44,10.41-3.61,1.24-.85,1.94-1.77,1.74-3.37-.15-1.26-.03-2.56-.03-3.84Z"/>
  <path class="cls-1" d="m68.71,283.02c0,6.05-.02,12.09.02,18.14,0,.95-.23,1.27-1.21,1.23-1.92-.08-3.85-.08-5.77,0-.97.04-1.27-.32-1.33-1.23-.08-1.09-.34-2.17-.47-3.26-.09-.8-.36-.81-.92-.35-1.3,1.09-2.68,2.08-4.15,2.93-5.13,2.99-10.61,3.63-16.31,2.22-5.6-1.38-8.92-5.44-9.44-11.28-.71-7.86,2.77-13.62,10.05-16.64,3.99-1.65,8.18-2.3,12.46-2.49,1.92-.08,3.85-.06,5.77-.07.56,0,.99-.04.98-.78-.04-2.1.14-4.22-.22-6.31-.58-3.29-2.63-5.34-6.1-6.06-3.89-.81-7.75-.36-11.59.42-2.16.44-4.28,1-6.34,1.78-.75.28-1.04.14-1.2-.65-.3-1.53-.68-3.04-1.07-4.54-.17-.65,0-.99.64-1.26,7.87-3.19,15.98-4.75,24.45-3.16,7.56,1.42,11.67,6.45,11.74,14.18.05,5.73.01,11.45.01,17.18h0Zm-10.3,1.93c0-1.74,0-3.48,0-5.22,0-.48.02-.93-.67-.92-3.98.03-7.97-.19-11.87.91-4.95,1.4-7.09,4.7-6.36,9.82.52,3.61,2.85,5.85,6.47,6.16,4.79.42,8.55-1.84,12.08-4.69.43-.35.35-.81.35-1.26,0-1.6,0-3.2,0-4.81Z"/>
  <path class="cls-1" d="m85.6,120.13c-2.96-2.77-5.83-5.39-8.62-8.09-5.57-5.4-10.93-10.98-15.14-17.54-1.81-2.82-3.33-5.8-4.24-9.05-1.57-5.62-.79-10.88,2.45-15.75,3.6-5.4,8.31-9.74,13.24-13.87,6.26-5.23,12.9-9.98,19-15.4,3.81-3.39,7.36-7.01,10.3-11.2,5.86-8.34,7.64-17.5,5.56-27.44-.11-.53-.23-1.07-.38-1.78.7.44,1.04,1.01,1.39,1.54,4.8,7.17,5.45,14.92,3.08,23.02-2.18,7.46-6.48,13.7-11.53,19.47-4.75,5.44-10.21,10.11-15.83,14.63-5.06,4.07-9.68,8.55-13.08,14.16-4.38,7.21-4.79,14.64-1.32,22.32,1.78,3.94,4.16,7.53,6.61,11.07,2.76,3.99,5.68,7.88,7.91,12.21.24.47.62.89.58,1.71Z"/>
  <path class="cls-1" d="m97.86,291.91c1.59-4.28,2.87-8.33,4.06-12.41,2.46-8.5,4.44-17.11,5.59-25.89.17-1.3.56-1.75,1.93-1.68,2.74.13,5.5.06,8.25.03.76,0,1.03.12.87,1-3.1,16.73-7.84,32.95-14.94,48.44-.33.73-.72,1.01-1.54,1-3.57-.05-7.15-.05-10.72,0-.84.01-1.19-.27-1.43-1.06-4.91-16.07-9.84-32.13-14.81-48.18-.32-1.05-.06-1.22.93-1.2,2.93.05,5.87.07,8.8,0,1-.03,1.33.36,1.58,1.24,3.69,12.7,8.36,25.11,11.14,38.08.03.12.1.22.3.65Z"/>
  <path class="cls-1" d="m39.3,186.92c-5.38.33-10.48,1.67-15.41,3.72-1.44.6-2.86,1.26-4.08,2.24-1.9,1.52-1.79,2.88.37,3.95,2.56,1.27,5.31,2,8.08,2.63,8.69,1.98,17.54,2.77,26.42,3.3,13.55.81,27.11.81,40.66.22,15.29-.67,30.55-1.73,45.57-4.87,2.6-.54,5.18-1.19,7.65-2.19.93-.38,1.85-.8,2.72-1.3,2.96-1.7,3.5-3.17,2.38-6.27,1.55.37,3,1.63,3.36,2.99.43,1.62-.48,2.76-1.54,3.72-2.85,2.58-6.36,3.96-9.9,5.22-8.98,3.18-18.29,4.93-27.69,6.24-16.69,2.33-33.47,3.07-50.31,2.68-18.07-.41-36.02-2.05-53.84-5.11-2.35-.4-4.66-1-6.77-2.18-2.93-1.63-3.25-3.81-.92-6.21,2.28-2.35,5.16-3.79,8.11-5.07,5.92-2.57,12.07-4.31,18.53-4.76,2.27-.16,4.52-.03,6.61,1.05Z"/>
  <path class="cls-1" d="m10.62,267.13c0-10.58.02-21.16-.03-31.74,0-1.09.29-1.39,1.37-1.36,2.84.08,5.68.05,8.52.01.79-.01,1.13.15,1.13,1.04-.13,20.84.21,41.68-.21,62.52-.04,1.83-.25,3.66-.58,5.46-1.61,8.86-7.54,13.89-15.34,17.26-.53.23-.84.01-1.17-.38-1.32-1.58-2.65-3.16-4.01-4.71-.45-.52-.43-.79.19-1.12.73-.38,1.41-.85,2.09-1.32,4.98-3.42,7.6-8.1,7.82-14.2.36-9.71.11-19.42.2-29.13,0-.78,0-1.56,0-2.34Z"/>
  <path class="cls-1" d="m94.54,126.77c1.49-1.6,2.72-3.24,3.66-5.09,2.77-5.43,2.33-10.6-1.29-15.49-1.04-1.4-2.21-2.69-3.28-4.06-2.2-2.83-4.08-5.86-5.45-9.18-3.44-8.32-2.48-16.13,2.84-23.37,4.43-6.04,10.39-10.27,16.81-13.91,7.56-4.29,15.59-7.47,23.89-10.02.49-.15.96-.29,1.54-.11-.17.68-.83.77-1.29,1.05-8.16,4.92-16.26,9.94-23.49,16.21-2.6,2.26-5,4.71-6.97,7.55-3.49,5.03-3.83,10.23-.96,15.66,1.96,3.7,4.49,7.01,6.9,10.41,1.58,2.23,2.82,4.6,3.3,7.32.66,3.75-.23,7.2-2.11,10.41-3.13,5.37-7.8,9.16-12.93,12.47-.32.21-.66.29-1.17.14Z"/>
  <path class="cls-1" d="m56.04,170.3c-2.48,2.63-2.12,3.98,1.44,5.1,2.95.93,6.03,1.13,9.07,1.42,6.52.64,13.05,1.05,19.61.67,6.87-.4,13.65-1.41,20.4-2.71,1.18-.23,2.16-.14,3.23.51,3.02,1.82,6.24,3.28,9.5,4.63.28.11.63.13.83.64-1.22.48-2.42,1-3.65,1.44-14.31,5.16-29.05,6.95-44.18,5.64-6.55-.57-12.98-1.69-19.09-4.21-1.91-.79-3.73-1.76-5.27-3.17-2.33-2.15-2.35-4.44.1-6.41,2.34-1.88,5.03-3.1,8.04-3.54l-.02-.02Z"/>
  <path class="cls-1" d="m60.01,120.84c-4.07,1.25-8.17,2.38-12.18,3.77-2.12.74-4.23,1.51-6.22,2.54-.85.44-1.69.93-2.44,1.52-1.65,1.31-1.5,2.53.41,3.4,2.28,1.04,4.74,1.38,7.19,1.69,7.79.98,15.63.96,23.46.87,20.32-.24,40.5-2.04,60.54-5.47.3-.05.61-.05.99.11-1,.5-2.1.87-3,1.51-6.31,4.44-13.71,5.36-21.02,6.49-14.33,2.21-28.78,3.01-43.26,2.9-10.9-.08-21.79-.52-32.54-2.61-2.25-.44-4.48-.95-6.58-1.9-.75-.34-1.49-.72-2.14-1.22-1.32-1.02-1.37-2.2-.15-3.37.52-.5,1.12-.97,1.76-1.29,10.84-5.53,22.29-8.76,34.51-8.96.23,0,.46.03.68.04Z"/>
  <path class="cls-1" d="m124.31,156.97c-5.64,1.69-11.03,2.91-16.48,3.89-11.44,2.05-22.97,3.04-34.58,2.73-8.57-.23-17.1-.92-25.36-3.49-2.28-.71-4.5-1.57-6.39-3.1-2.35-1.9-2.47-3.98-.25-6.03,2.69-2.48,6.06-3.66,9.56-4.7-.47.57-.97,1.12-1.4,1.71-1.53,2.12-1.04,3.89,1.35,4.96,1.87.83,3.87,1.11,5.87,1.33,15.83,1.77,31.62,1.67,47.37-.91,3.39-.56,6.77-1.13,10.15-1.73.77-.14,1.34-.05,1.97.51,2.31,2.06,4.97,3.56,8.2,4.82Z"/>
  <path class="cls-1" d="m166.82,199.12c-.42,2.91-1.78,4.92-3.64,6.63-2.96,2.71-6.51,4.4-10.21,5.8-7.98,3.01-16.3,4.58-24.71,5.71-19.45,2.63-38.99,3-58.56,2.1-9.61-.44-19.2-1.2-28.6-3.45-2.35-.56-4.67-1.22-6.75-2.55,3.46.42,6.91.88,10.37,1.27,12.95,1.44,25.95,1.84,38.97,1.66,18.91-.27,37.69-1.83,56.22-5.83,6.18-1.34,12.29-2.96,18.11-5.5,3.16-1.38,6.23-2.9,8.81-5.84Z"/>
  <path class="cls-1" d="m132.08,161.86c.28-.84.9-1.13,1.5-1.46,6.23-3.36,12.18-7.1,17.17-12.2,2.48-2.55,4.59-5.35,5.88-8.7,3.19-8.26-1.75-16.62-10.53-17.93-2.53-.38-4.91.09-7.31.71-.52.14-1.04.29-1.76.5.64-1.21,1.51-1.89,2.51-2.27,7.38-2.79,14.57-2.76,21.14,2.09,6.65,4.91,7.93,13.23,3.35,20.57-2.89,4.62-7.02,7.91-11.63,10.67-5.47,3.27-14.78,6.96-20.33,8.03Z"/>
  <path class="cls-1" d="m171.24,254.35c-.79.36-.41,1.67-1.24,1.67-.83,0-.47-1.3-1.22-1.66-.07.1-.14.2-.2.3-.26.45.44,1.44-.54,1.38-.71-.05-.29-.91-.35-1.4-.07-.54-.04-1.1,0-1.64.02-.37-.18-.87.44-.99.63-.12.91.21,1.1.76.19.56.43,1.1.76,1.91.37-.87.66-1.49.9-2.14.18-.5.53-.58.98-.52.54.07.45.49.46.84,0,.82,0,1.65,0,2.47,0,.35.08.81-.49.77-.49-.03-.31-.46-.36-.75-.04-.3.09-.64-.22-.98Z"/>
  <path class="cls-1" d="m167.07,252.37c-.06.11-.1.25-.15.25-1.7.24-.82,1.57-1.03,2.44-.09.39.24,1.05-.52,1.02-.62-.03-.38-.61-.41-.98-.03-.45-.01-.91,0-1.37,0-.52.06-1.05-.73-.98-.27.02-.44-.13-.44-.4,0-.11.14-.31.21-.31.95,0,1.91.01,2.86.05.08,0,.14.19.21.28Z"/>
  <path class="cls-1" d="m56.06,170.32s.01-.09.02-.13c-.01.04-.03.07-.04.11,0,0,.02.02.02.02Z"/>
</svg>