<?xml version="1.0" encoding="UTF-8"?>
<svg id="Capa_1" data-name="Capa 1" xmlns="http://www.w3.org/2000/svg" viewBox="0 0 101.19 113.87">
  <defs>
    <style>
      .cls-1 {
        fill: #fff;
        stroke-width: 0px;
      }
    </style>
  </defs>
  <path class="cls-1" d="m.14,3.08C.14,2.1-.24.74.25.25c.49-.49,1.85-.11,2.83-.11,32.7,0,65.41,0,98.11,0-.07.33-.18.66-.21.99-.71,7.45-1.43,14.9-2.09,22.36-1.03,11.55-2.01,23.11-3.03,34.67-1.26,14.29-2.56,28.57-3.79,42.86-.11,1.33-.51,1.99-1.9,2.38-11.3,3.1-22.62,6.17-33.84,9.54-3.84,1.15-7.32,1.29-11.2.12-11.25-3.41-22.61-6.49-33.93-9.68-1.07-.3-1.69-.63-1.79-1.97-.66-8.29-1.46-16.58-2.2-24.86-.65-7.22-1.28-14.43-1.92-21.65-.73-8.14-1.47-16.28-2.19-24.42C2.29,21.59,1.51,12.72.72,3.85c-.03-.37.05-.84-.58-.77Zm50.55,54.69c0,15.58,0,31.16,0,46.74,0,1.82.1,1.91,1.83,1.45,2.93-.78,5.85-1.6,8.77-2.41,7.17-1.97,14.34-3.94,21.51-5.9.85-.23,1.35-.62,1.38-1.59.04-1.32.23-2.63.35-3.94.56-6.13,1.12-12.27,1.67-18.4.44-4.92.84-9.84,1.27-14.76.45-5.11.93-10.22,1.38-15.34.42-4.77.82-9.55,1.25-14.32.54-5.99,1.13-11.97,1.66-17.96.17-2,.03-2.1-1.94-2.1-12.38,0-24.76,0-37.14,0-1.98,0-1.99,0-1.99,2.09,0,15.48,0,30.96,0,46.44Zm-4.08-1.77c0-10.73-.02-21.46.03-32.19,0-1.2-.29-1.63-1.54-1.57-2.1.1-4.21.13-6.31,0-1.49-.09-1.89.37-1.88,1.87.06,16.41.04,32.83.03,49.24,0,1.77,0,1.75-1.68,1.28-5.55-1.56-11.1-3.09-16.64-4.67-.89-.25-1.23-.11-1.21.89.05,3.13.05,6.27,0,9.41-.01.9.28,1.23,1.17,1.47,8.81,2.4,17.6,4.87,26.4,7.31,1.64.45,1.64.44,1.64-1.29,0-10.58,0-21.17,0-31.75Z"/>
  <path class="cls-1" d="m50.69,57.77c0-15.48,0-30.96,0-46.44,0-2.08,0-2.09,1.99-2.09,12.38,0,24.76,0,37.14,0,1.97,0,2.11.1,1.94,2.1-.52,5.99-1.11,11.97-1.66,17.96-.43,4.77-.83,9.55-1.25,14.32-.45,5.11-.93,10.22-1.38,15.34-.43,4.92-.84,9.84-1.27,14.76-.54,6.13-1.11,12.27-1.67,18.4-.12,1.31-.31,2.63-.35,3.94-.03.98-.53,1.36-1.38,1.59-7.17,1.95-14.34,3.93-21.51,5.9-2.92.8-5.85,1.62-8.77,2.41-1.72.46-1.83.37-1.83-1.45,0-15.58,0-31.16,0-46.74Zm4.08,31.61c.25-.01.39,0,.52-.03,8.6-2.24,17.2-4.49,25.8-6.71.71-.18.93-.57.97-1.23.09-1.46.21-2.93.33-4.39.65-8.43,1.3-16.86,1.96-25.29.17-2.15.2-2.13-1.91-1.86-5.52.7-11.05,1.35-16.57,2.1-1.14.15-1.41-.14-1.4-1.26.06-4.95.09-9.9-.01-14.84-.03-1.49.47-1.77,1.83-1.75,6.02.07,12.04.02,18.06.04.88,0,1.48-.08,1.56-1.2.22-3.17.5-6.34.83-9.5.1-.94-.21-1.19-1.1-1.19-9.89.02-19.78.02-29.66,0-.97,0-1.24.33-1.24,1.28.03,13.72.03,27.44,0,41.16,0,1.08.3,1.29,1.35,1.09,5.76-1.08,11.55-2.04,17.3-3.14,1.26-.24,1.41.15,1.33,1.21-.17,2.29-.39,4.59-.34,6.88.03,1.58-.66,2.02-2.05,2.37-5.49,1.37-10.95,2.88-16.43,4.34-.56.15-1.16.19-1.15,1.04.02,3.62,0,7.24,0,10.89Z"/>
</svg>