<?xml version="1.0" encoding="UTF-8"?>
<svg id="Capa_1" data-name="Capa 1" xmlns="http://www.w3.org/2000/svg" viewBox="0 0 122.19 92.06">
  <defs>
    <style>
      .cls-1 {
        fill: #45a1da;
        stroke-width: 0px;
      }
    </style>
  </defs>
  <path class="cls-1" d="m32.08,69.68c.09.19.27.23.42.31,1.78.89,2.98,2.34,3.77,4.24,1.41,3.38,2.39,6.8,2.64,10.29.29,4.13-1.02,6.19-4.61,7.04-5.67,1.33-11.32.03-16.82-3.88-4.15-2.94-7.8-6.57-11.34-10.35-1.73-1.85-3.37-3.79-4.97-5.77-1.54-1.91-1.59-2.46,0-3.68,2.09-1.62,3.69-3.79,5.49-5.73,3.35-3.61,6.65-7.29,10-10.91,3.88-4.18,7.77-8.35,11.7-12.47,3.36-3.53,6.73-7.04,10.19-10.46,3.61-3.57,8.16-5.48,13.23-6.41,3.55-.65,7.21-.88,10.87-1.06,2.02-.1,4.04-.19,6.05-.33.36-.02.47.06.54.44.11.61.55,1.38.32,1.79-.22.39-1,.16-1.53.19-4.49.29-9.03.4-13.45.97-4.44.56-8.57,1.8-12.09,4.4-1.74,1.28-3.22,2.87-4.71,4.44-2.69,2.85-5.38,5.71-8.03,8.6-3.41,3.72-6.81,7.46-10.19,11.21-3.73,4.15-7.38,8.38-10.98,12.65-.06.07-.11.15-.26.34,1.21-.16,2.29-.32,3.37-.43,4.42-.45,8.88-.7,13.46-.27.63.06,1.29.11,1.91.34,1.9.69,3.4.09,4.86-.71.93-.51,1.53-1.39,2.23-2.17,1.57-1.73,3.49-2.98,5.53-4.04,7.42-3.9,15.44-6.47,23.76-8.37,1.94-.44,3.92-.68,5.96-.75,1.97-.07,3.78-.56,5.17-1.87,1.07-1,2-2.16,2.98-3.26,6.93-7.77,13.29-16.09,19.35-24.69,3.41-4.85,6.76-9.76,10.16-14.62,1.07-1.54,2.36-2.84,3.95-3.79,1.93-1.15,4-1.34,6.31.19.54.36,1.1.68,1.65,1.04.41.27.82.4,1.27.46,1.26.16,1.54.44,1.84,1.81q.2.92-.6,1.03c-.25.03-.51.06-.76.1-.7.12-1.28-.06-1.97-.63-.96-.79-2.03-1.44-3.13-1.96-1.06-.5-1.99-.28-2.86.16-1.3.66-2.26,1.71-3.07,2.94-3.46,5.22-6.9,10.45-10.46,15.59-5.22,7.53-10.58,14.94-16.15,22.16-1.74,2.25-3.53,4.45-5.16,6.8-.37.53-.67,1.12-1.06,1.63-.72.97-.69,2.09-.11,3.35.84,1.82,1.87,3.54,2.89,5.28,1.51,2.56,2.99,5.12,4.27,7.79,1.49,3.13,1.18,5.77-.6,8.02-1.55,1.96-3.56,3.31-5.7,4.47-3.77,2.04-7.91,3.24-12.24,4.03-4.95.91-9.7-.53-14.46-3.49-5.13-3.19-9.89-7-14.5-11.1-1.75-1.56-2.78-1.75-4.35-.9Zm45.63-6.37c-1.88-2.69-3.98-5.44-6.19-8.1-1.53-1.83-3.24-2.79-5.3-2.7-.14,0-.28,0-.42,0-2.68.05-5.21.57-7.72,1.18-4.57,1.1-8.98,2.61-13.24,4.43-2.42,1.04-4.84,2.07-6.95,3.64-.69.52-1.36,1.07-1.86,1.82-.34.52-.28,1.09.03,1.73.47.96,1.21,1.49,2.1,1.85,1.44.59,2.9,1,4.36,1.44,2.42.73,4.41,2.28,6.15,4.35,1.61,1.91,2.99,4.01,4.57,5.95,1.97,2.43,4.27,3.95,7.08,4.23,1.4.14,2.77.13,4.12-.02,4.11-.45,7.88-1.73,11.45-3.5,2.32-1.16,4.51-2.51,6.4-4.31,1.12-1.06,1.24-1.59.58-3.33-.16-.41-.33-.81-.53-1.21-1.26-2.59-2.91-4.96-4.63-7.49Zm-47.96,10.24c-.62-1-1.35-1.91-2.03-2.86-1.32-1.83-2.97-2.8-4.95-3.13-3.17-.52-6.25-.44-9.31-.25-2.28.14-4.52.41-6.7.92-.48.11-.95.22-1.18.73-.73,1.59-.42,3.51.81,5.09,2.55,3.3,5.43,6.24,8.45,9.03,3.9,3.59,8.1,6.18,12.94,6.82,2.72.36,5.34.33,7.74-.63,1.28-.51,1.65-1.45,1.21-3.01-.2-.7-.48-1.39-.8-2.06-1.77-3.71-3.97-7.19-6.17-10.66Z"/>
</svg>