<?xml version="1.0" encoding="UTF-8"?>
<svg id="Capa_1" data-name="Capa 1" xmlns="http://www.w3.org/2000/svg" viewBox="0 0 151.46 183.63">
  <defs>
    <style>
      .cls-1 {
        stroke-width: 0px;
      }
    </style>
  </defs>
  <path class="cls-1" d="m106.91,183.63c-3.82-1.1-7.17-2.89-9.38-6.35-.35-.55-.84-1.09-.97-1.7-.5-2.38-1.93-2.79-4.2-2.79-3.2,0-6.41-.51-9.59-1.01-5.47-.85-10.82-.22-16.16.9-1.75.36-3.5.71-5.27.94-1.74.23-2.99.75-4.15,2.38-3.37,4.71-8.42,5.99-13.93,5.69-4.21-.23-8.27-1.34-11.99-3.3-5.41-2.85-11.25-3.73-17.18-4.49-2.87-.37-5.78-.94-8.5-1.9-4.56-1.61-6.22-5.01-5.37-9.78.56-3.14,2.21-6.08,1.65-9.43-.36-2.17-.67-4.37-.84-6.56-.34-4.52,1.54-8.18,5.75-9.75,9.85-3.68,7.19-3.82,13.01-10.48.42-.48.73-1.3.67-1.91-.95-8.47,1.33-16.31,4.64-23.93,4.27-9.82,10.25-18.57,16.99-26.82,5.44-6.66,8.73-14.21,9.23-22.81.23-4.03,0-8.1-.17-12.14-.3-7.17-.55-14.32,1.62-21.29,2.54-8.15,7.88-13.45,16.17-15.67,6.1-1.64,12.26-1.92,18.41-.45,8.33,1.99,13.45,7.49,16.32,15.35,2.49,6.83,2.9,13.98,3.12,21.14.08,2.57.08,5.14-.06,7.7-.4,7.28,1.68,13.82,5.93,19.63,3.88,5.3,8.06,10.37,11.95,15.66,5.9,8.03,10.7,16.64,12.89,26.49,1.53,6.9,1.36,13.73-.82,20.59,3.94,1.5,5.61,4.75,6.36,8.59.87,4.5,2.59,8.51,5.45,12.2,4.84,6.25,3.73,10.66-3.26,14.46-3.25,1.76-6.63,3.27-9.82,5.13-2.1,1.22-4.26,2.58-5.85,4.36-4.71,5.24-9.95,9.55-16.92,11.36h-5.74Zm7.83-70.35c-1.09-3.73-1.96-7.39-3.24-10.89-1.3-3.57-2.84-7.08-4.57-10.47-5.66-11.06-10.35-22.5-13.72-34.47-.1-.35-.27-.68-.31-.79-1.92,1.32-3.65,2.7-5.55,3.75-2.59,1.44-5.32,2.64-7.99,3.94-.75.36-1.49.76-2.28,1.03-4.82,1.66-9.44,1.87-13.59-1.8-1.85-1.63-3.87-3.07-5.86-4.64-.79,3.73-1.37,7.19-2.28,10.57-2.41,8.96-6.41,17.3-10.31,25.67-2.58,5.53-4.71,11.2-5.75,17.23-.47,2.71-.73,5.46-1.11,8.44-.39-.53-.64-.84-.86-1.18-3-4.69-3.42-9.84-2.64-15.17.8-5.51,3.14-10.46,5.73-15.32.77-1.44,1.44-2.94,2.16-4.41-3.12,3.25-8.03,13.49-9.58,19.17-1,3.67-1.4,7.39-.85,11.16.91,6.21,4.76,10.28,9.75,13.68,3.73,2.54,7.4,5.29,10.66,8.39,2.09,2,3.73,4.66,4.98,7.31,1.94,4.1-.38,7.67-4.81,7.62-.13,0-.27.12-.46.21.5.63.93,1.19,1.37,1.75,1.33,1.67,2.4,3.7,4.06,4.93,3.89,2.89,8.43,4.43,13.26,4.92,9.57.98,18.14-1.86,26.01-7.13.46-.31.99-.8,1.1-1.3.86-3.88,1.76-7.76,2.39-11.69.65-4.05.74-8.21,1.55-12.22.84-4.13,2.77-7.74,7.02-9.53.39-.16.65-.91.76-1.43.66-3.32,2.72-5.08,6.11-5.1,3.9-.02,7.3,1.58,10.6,3.41,3,1.66,5.79,3.53,5.48,7.83.6-.36,1.1-.77,1.16-1.24.38-2.95-1.36-4.89-3.5-6.41-2.37-1.67-4.94-3.06-7.59-4.67,1.4-6.15.31-12.29-2.21-18.23-2.47-5.83-6-10.93-10.89-15,.19.83.58,1.52,1.12,2.06,4.42,4.41,7.3,9.72,8.94,15.68,1.35,4.92,1.45,9.86-.45,14.82-1.32-.17-2.55-.33-3.78-.49Zm-69.75,64.98c.6,0,1.2.03,1.79,0,10.17-.68,12.89-9.9,9.25-15.87-1.61-2.64-3.36-5.2-5.16-7.72-2.39-3.34-5.11-6.47-7.28-9.95-2.53-4.03-4.55-8.37-6.93-12.5-.91-1.58-2.05-3.1-3.37-4.36-4.44-4.25-8.88-4.08-12.42.9-3.1,4.36-6.74,7.65-11.94,9.07-.17.05-.32.16-.48.23-3.75,1.71-5.17,4.24-4.63,8.29.27,2.01.5,4.02.84,6.02.54,3.16-.86,5.96-1.52,8.9-1.14,5.03.45,7.51,5.47,8.42,1.64.3,3.3.55,4.96.67,6.59.47,12.96,1.62,18.88,4.83,3.86,2.09,8.12,3.06,12.54,3.08Zm64.38-53.51c-2.24,1.19-3.64,2.94-4.2,5.1-.81,3.15-1.53,6.38-1.8,9.61-.47,5.65-.96,11.24-2.73,16.7-1.11,3.44-1.88,7.01-2.49,10.58-1.42,8.39,5.54,15.05,13.88,13.52,5.87-1.08,10.22-4.49,14.26-8.64,2.42-2.49,5.27-4.61,8.12-6.63,1.88-1.33,4.11-2.15,6.16-3.25,1.99-1.07,4.02-2.09,5.91-3.33,2.79-1.83,3.3-3.72,1.72-6.72-.91-1.72-2.29-3.19-3.29-4.87-1.17-1.97-2.32-3.98-3.16-6.1-.82-2.09-1.04-4.42-1.9-6.49-.59-1.42-1.63-2.81-2.82-3.78-2.49-2-6.09-1.56-8.62.28-2.09,1.52-4.38,2.93-6.8,3.81-5.22,1.91-9.13-.1-11.04-5.33-.5-1.38-.78-2.85-1.21-4.47Zm-38.18-60.52c1.88-.52,3.89-.76,5.6-1.61,4.05-2.01,7.99-4.24,11.9-6.52,1.93-1.13,3.53-2.71,4.05-5.01.13-.6.05-1.55-.33-1.92-1.15-1.09-2.41-2.16-3.8-2.9-3.31-1.74-6.75-3.22-10.09-4.91-5.26-2.66-11.09-2.09-15.22,1.47-2.2,1.9-4.5,3.7-6.81,5.47-1.15.88-1.69,1.93-1.64,3.36.09,2.51,1.82,3.95,3.53,5.33,2.18,1.75,4.49,3.35,6.74,5.01,1.78,1.32,3.72,2.14,6.08,2.21Zm14.63-20.95c.97.45,1.87.79,2.69,1.26,1.29.74,2.04.3,2.64-.94,2-4.12,2.17-8.25.04-12.34-2.17-4.15-6.05-5.93-9.89-4.69-4.3,1.39-7.85,7.86-6.58,12.04.09.3.35.69.62.79,1.25.46,2.53.84,4,1.31-.22-2.89.15-5.38,1.93-7.46,1.52-1.77,3.38-1.68,4.76.22,2.12,2.91,2.05,6.9-.2,9.81Zm-20.83-2.76c1.06-.84,2.82-1.54,2.92-2.44.44-3.79-.46-7.37-3.34-10.13-2.06-1.97-4.98-1.78-6.84.29-3.9,4.34-3.57,12.9.77,17.15.61-.46,1.24-.93,1.88-1.41-2-2.81-2.55-5.71-1.3-8.74.32-.77,1.4-1.69,2.15-1.7.76-.01,1.88.86,2.22,1.62.7,1.54.98,3.26,1.55,5.36Z"/>
  <path class="cls-1" d="m57.39,50.6c.82.98,1.52,2.1,2.48,2.92,1.48,1.27,3.06,2.47,4.75,3.45,2.79,1.63,5.84,2.01,8.97,1.09,5.18-1.52,9.73-4.1,13.42-8.11.27-.3.7-.45,1.06-.68.16.15.32.29.47.44-.56.74-.99,1.64-1.69,2.2-4.09,3.27-8.6,5.83-13.64,7.26-4.98,1.42-9.24-.56-13.15-3.47-.91-.67-1.78-1.43-2.51-2.29-.51-.6-.73-1.44-1.09-2.17.31-.21.62-.43.92-.64Z"/>
  <path class="cls-1" d="m69.02,43.22c-1.06.45-1.94,1.86-3.4.65.97-1.44,2.12-1.42,3.4-.65Z"/>
  <path class="cls-1" d="m76.55,44.43c-1.05-.26-2.11-.53-3.26-.82,1-1.36,2.14-1.25,3.4.13-.05.23-.09.46-.14.69Z"/>
</svg>