<?xml version="1.0" encoding="UTF-8"?>
<svg id="Capa_6" data-name="Capa 6" xmlns="http://www.w3.org/2000/svg" viewBox="0 0 510.7 642.59">
  <defs>
    <style>
      .cls-1 {
        fill: #fff;
        stroke: #fff;
        stroke-miterlimit: 10;
        stroke-width: 5px;
      }
    </style>
  </defs>
  <path class="cls-1" d="m278,311.56c-28.48,0-56.97,0-85.45,0-13.81,0-21.75-7.78-21.77-21.61-.07-38.14-.08-76.29-.04-114.43.01-13.79,7.97-21.63,21.78-21.64,57.3-.02,114.6-.02,171.9,0,13.52,0,21.53,7.76,21.56,21.36.1,38.31.07,76.62-.05,114.93-.04,13.77-8.05,21.39-21.98,21.39-28.65,0-57.3,0-85.95,0Zm.37-63.88c32.07-26.6,63.82-52.94,95.61-79.3-2.56-4.15-6.37-4.39-10.27-4.39-19.82,0-39.65,0-59.47,0-36.98,0-73.96,0-110.95,0-4,0-7.93.09-10.61,4.71.66.41,1.29.71,1.8,1.14,31.15,25.82,62.3,51.64,93.89,77.84Zm-92.84,52.34c6.93,2.27,180.89,1.77,185.14-.42-23.34-19.21-46.51-38.29-69.72-57.41-6.14,5.09-11.88,9.64-17.36,14.48-3.69,3.26-6.82,3.2-10.5-.05-5.58-4.93-11.43-9.55-17.33-14.44-23.4,19.27-46.48,38.27-70.23,57.83Zm-4.06-119.48v109.67c22.41-18.46,44.19-36.41,66.34-54.66-22.24-18.44-44.04-36.51-66.34-55.01Zm127.44,55.04c22.33,18.37,44.1,36.28,66.42,54.65v-109.75c-22.41,18.59-44.15,36.63-66.42,55.11Z"/>
</svg>