<?xml version="1.0" encoding="UTF-8"?>
<svg id="Capa_1" data-name="Capa 1" xmlns="http://www.w3.org/2000/svg" viewBox="0 0 215.47 157.76">
  <defs>
    <style>
      .cls-1 {
        fill: #fff;
        stroke-width: 0px;
      }
    </style>
  </defs>
  <path class="cls-1" d="m107.74,157.76c-28.81,0-57.62,0-86.43,0-12.8,0-21.16-7.91-21.2-20.66C-.02,98.3-.05,59.5.09,20.7.13,7.91,8.44.02,21.28.02c57.62-.02,115.24-.02,172.85,0,12.89,0,21.18,7.75,21.23,20.65.17,38.97.15,77.93-.07,116.9-.07,12.54-8.48,20.18-21.13,20.19-28.81,0-57.62,0-86.43,0Zm0-147.46c-28.46,0-56.92,0-85.37.02-1.65,0-3.32.16-4.93.46-2.01.37-4.19,1.18-4.66,3.23-.4,1.79,1.86,2.5,3.06,3.5,29.54,24.56,59.15,49.03,88.62,73.67,2.63,2.2,4,2.04,6.51-.05,29.23-24.41,58.58-48.67,87.84-73.05,1.46-1.22,4.63-1.86,3.65-4.42-.93-2.44-3.84-2.97-6.36-3.27-1.48-.17-2.99-.08-4.49-.08-27.96,0-55.92,0-83.88,0Zm91.77,136.58c.06-.43.12-.86.18-1.29-22.33-18.38-44.68-36.74-66.96-55.19-1.92-1.59-3.08-1.63-4.99.06-4.71,4.21-9.66,8.15-14.54,12.17-4.87,4.02-6.16,4-11.15-.14-4.61-3.83-9.3-7.56-13.75-11.55-2.23-2-3.64-2.23-6.16-.12-16.96,14.2-34.1,28.18-51.18,42.24-5.17,4.26-10.33,8.54-15.49,12.81.16.34.33.67.49,1.01h183.54Zm-188.82-10.52c21.94-18.04,43.19-35.55,64.51-52.98,2.21-1.8.85-2.53-.5-3.65-8.46-6.98-16.87-14.01-25.32-21.01-12.73-10.55-25.48-21.09-38.69-32.02v109.65Zm193.86-.18V26.84c-21.6,17.91-42.69,35.44-63.85,52.88-1.94,1.6-2.08,2.35-.05,3.98,8.17,6.56,16.2,13.29,24.3,19.95,13.06,10.74,26.12,21.46,39.6,32.54Zm1.76-104.99c.05-.14.13-.29.12-.43,0-.05-.21-.09-.33-.14-.05.14-.13.29-.12.43,0,.05.21.09.33.14Z"/>
  <path class="cls-1" d="m206.32,31.2c-.12-.05-.33-.09-.33-.14,0-.14.08-.29.12-.43.12.05.33.09.33.14,0,.14-.08.29-.12.43Z"/>
</svg>