<?xml version="1.0" encoding="UTF-8"?>
<svg id="Capa_6" data-name="Capa 6" xmlns="http://www.w3.org/2000/svg" viewBox="0 0 510.7 642.59">
  <defs>
    <style>
      .cls-1 {
        fill: #fff;
        stroke-width: 0px;
      }
    </style>
  </defs>
  <path class="cls-1" d="m459.72,301.69c-.43,75.51-61.87,127.59-141.2,127.34-73.43-.23-133.55-56.88-132.82-130.02.73-73.3,60.9-122.32,136.11-122.1,78.69.23,138.33,50.18,137.91,124.77Zm-216.46-35.71c-5.63,24.63-2.69,46.31-2.03,68.05.38,12.56,5.08,17.44,17.56,17.9,44.12,1.62,88.23,1.73,132.36.52,6.28-.17,10.58-1.08,11.19-8.73,2.14-26.97,3.39-53.84-1.9-82.79-23.97,19.13-47.69,35.56-72.91,49.92-7.08,4.03-12.29,4.53-19.91.25-22.42-12.58-43.45-26.9-64.34-45.12Zm152.55-16.4c-51.42-4.23-98.44-5.61-147.89,1.82,19.41,22.7,42.44,35.42,65.11,48.64,4.53,2.64,8.46,1.86,12.6-.49,23.82-13.53,47.08-27.8,70.17-49.97Z"/>
</svg>