<?xml version="1.0" encoding="UTF-8"?>
<svg id="Capa_6" data-name="Capa 6" xmlns="http://www.w3.org/2000/svg" viewBox="0 0 232.94 178">
  <defs>
    <style>
      .cls-1 {
        fill: #fff;
        stroke-width: 0px;
      }
    </style>
  </defs>
  <g>
    <path class="cls-1" d="m110.83,39.26h0c0-10.03-.01-20.06.01-30.09,0-1.65-.32-3.08-1.95-3.85-1.62-.77-2.93-.13-4.21.93-18.61,15.25-37.24,30.48-55.85,45.73-.73.6-1.45.86-2.4.86-8.49-.03-16.98-.02-25.47-.02-5.12,0-7.58,2.43-7.58,7.52,0,18.1,0,36.2-.01,54.3,0,4.27,2.71,6.97,7.02,6.97,8.72,0,17.45,0,26.17,0,.78,0,1.4.14,2.04.66,14.49,11.89,29.01,23.75,43.52,35.62,4.33,3.54,8.66,7.09,13.01,10.62,1.5,1.21,2.98,1.26,4.36.25,1.14-.84,1.35-2.02,1.35-3.34-.01-20.25,0-40.49-.02-60.74,0-.8.07-1.31.96-1.72,6.69-3.05,10.42-8.29,10.45-15.66.03-7.44-3.7-12.71-10.44-15.81-.78-.36-.98-.77-.98-1.57.02-10.22.02-20.43.02-30.65Zm86.07,48.13c-.15-5.06-.43-10.04-1.33-14.97-5.49-30.08-21.87-52.22-48.67-66.77-1.31-.71-2.7-1.13-4.09-.17-1.36.94-1.6,2.39-1.43,3.86.46,4.07,2.3,7.37,5.78,9.6,3.86,2.47,7.53,5.17,10.98,8.17,25.4,22.08,34.15,59.11,21.28,90.22-7.23,17.48-19.19,30.78-35.6,40.11-3.1,1.76-4.19,5.13-2.61,7.97,1.64,2.94,5.07,3.85,8.21,2,30.55-17.96,46.06-44.83,47.48-80.03Zm-22.97,2.61c-.21-18.31-4.85-32.26-14.23-44.58-6.05-7.94-13.51-14.25-22.31-18.95-3.16-1.69-6.61-.67-8.17,2.31-1.5,2.88-.39,6.14,2.64,7.84,1.38.77,2.76,1.56,4.1,2.41,19.46,12.25,29.85,36.01,25.47,58.47-3.5,17.92-13.39,31.25-29.29,40.17-.86.48-1.68.99-2.31,1.78-1.68,2.14-1.66,5.2.05,7.24,1.86,2.22,4.96,2.74,7.74,1.15,23.47-13.42,35.27-33.82,36.31-57.83Zm-22.93-1.01c-.18-13.4-4.04-23.64-11.8-32.37-4.08-4.58-8.91-8.21-14.48-10.8-3.09-1.44-6.14-.21-7.69,2.96-1.35,2.77-.25,5.79,2.66,7.31.5.26,1,.51,1.49.77,14.68,7.63,21.86,25.41,16.56,41.06-3.08,9.1-8.95,15.81-17.52,20.14-2.01,1.02-3.39,2.48-3.63,4.77-.23,2.24.72,4.02,2.49,5.31,1.87,1.36,3.91,1.39,5.95.33,16.69-8.67,25.12-22.55,25.98-39.48Z"/>
    <path class="cls-1" d="m110.83,39.26c0,10.22,0,20.43-.02,30.65,0,.8.21,1.21.98,1.57,6.75,3.09,10.47,8.37,10.44,15.81-.03,7.37-3.76,12.61-10.45,15.66-.89.41-.96.93-.96,1.72.01,20.25,0,40.49.02,60.74,0,1.32-.21,2.51-1.35,3.34-1.37,1.01-2.86.96-4.36-.25-4.35-3.52-8.67-7.07-13.01-10.62-14.51-11.87-29.02-23.73-43.52-35.62-.63-.52-1.26-.67-2.04-.66-8.72.02-17.45.02-26.17,0-4.31,0-7.02-2.7-7.02-6.97,0-18.1,0-36.2.01-54.3,0-5.09,2.45-7.52,7.58-7.52,8.49,0,16.98-.01,25.47.02.95,0,1.66-.26,2.4-.86,18.61-15.25,37.24-30.48,55.85-45.73,1.29-1.05,2.59-1.7,4.21-.93,1.63.77,1.95,2.2,1.95,3.85-.02,10.03-.01,20.06-.01,30.09h0Z"/>
    <path class="cls-1" d="m196.91,87.39c-1.42,35.19-16.93,62.07-47.48,80.03-3.14,1.85-6.57.94-8.21-2-1.58-2.84-.49-6.21,2.61-7.97,16.42-9.34,28.37-22.63,35.6-40.11,12.87-31.11,4.12-68.14-21.28-90.22-3.46-3-7.13-5.7-10.98-8.17-3.48-2.23-5.32-5.53-5.78-9.6-.17-1.48.07-2.92,1.43-3.86,1.39-.96,2.78-.54,4.09.17,26.8,14.55,43.18,36.69,48.67,66.77.9,4.92,1.18,9.9,1.33,14.97Z"/>
    <path class="cls-1" d="m173.94,90c-1.04,24.01-12.84,44.41-36.31,57.83-2.78,1.59-5.88,1.07-7.74-1.15-1.71-2.04-1.73-5.1-.05-7.24.62-.79,1.45-1.3,2.31-1.78,15.9-8.92,25.79-22.25,29.29-40.17,4.39-22.46-6.01-46.22-25.47-58.47-1.34-.84-2.72-1.63-4.1-2.41-3.03-1.7-4.14-4.97-2.64-7.84,1.55-2.98,5-4,8.17-2.31,8.8,4.71,16.27,11.01,22.31,18.95,9.38,12.32,14.02,26.27,14.23,44.58Z"/>
    <path class="cls-1" d="m151.01,88.99c-.86,16.93-9.28,30.81-25.98,39.48-2.03,1.06-4.07,1.03-5.95-.33-1.77-1.29-2.72-3.07-2.49-5.31.24-2.3,1.61-3.76,3.63-4.77,8.57-4.33,14.44-11.04,17.52-20.14,5.3-15.65-1.88-33.43-16.56-41.06-.5-.26-1-.51-1.49-.77-2.9-1.52-4-4.54-2.66-7.31,1.54-3.18,4.59-4.4,7.69-2.96,5.57,2.59,10.4,6.21,14.48,10.8,7.76,8.72,11.62,18.97,11.8,32.37Z"/>
  </g>
  <rect class="cls-1" x="102.07" y="-43.88" width="28.8" height="265.76" transform="translate(121.12 -57.51) rotate(54.44)"/>
</svg>