<?xml version="1.0" encoding="UTF-8"?>
<svg id="Capa_1" data-name="Capa 1" xmlns="http://www.w3.org/2000/svg" viewBox="0 0 325.98 459.83">
  <defs>
    <style>
      .cls-1 {
        fill: #fff;
        stroke-width: 0px;
      }
    </style>
  </defs>
  <path class="cls-1" d="m78.67,201.07c-2-4.41-3.99-8.81-6.25-13.81-.45,2-.79,3.5-1.13,5-.26.01-.51.02-.77.03-4.73-8.18-5-17.49-5.92-26.63l-.75-.05c-.65,3.31-1.29,6.62-2.1,10.77-.99-1.52-1.73-2.27-1.99-3.15-1.62-5.57-3.21-11.14-4.58-16.77-.19-.8.62-2.25,1.4-2.79,2.02-1.39,4.27-2.44,6.68-3.77.47,2.5.87,4.61,1.27,6.73.24.05.47.1.71.15,2.6-3.91,5.2-7.81,7.8-11.72.33.1.66.2.98.3-.3,3.81-.6,7.61-.9,11.42.35.12.7.23,1.05.35,5.15-13.82,15.79-24.18,23.08-36.65-.22-.19-.44-.38-.66-.57-8.72,6.83-17.44,13.67-26.15,20.5-.2-.17-.41-.35-.61-.52.33-1.16.66-2.32,1.17-4.12-8.15,7.03-15.83,13.64-23.53,20.29-.04-.05.06.22.17.22,3.59.22,3.52.22,3.59,4.07.08,4.63.29,9.25.43,13.88.03.97,0,1.95-.32,3.01-3.79-3.77-4.51-8.98-6.48-13.57-.26.02-.51.03-.77.05,0,2.6-.07,5.2.02,7.79.1,3.05.28,6.1.51,9.15.12,1.63-.27,2.53-2.12,2.81-6.4.99-4.64,1.58-7.3-3.72-.4-.81-.78-1.62-1.18-2.44l-.73.04v9.04c-.41.06-.82.11-1.23.17-3.71-6.05-5.06-12.82-5.22-20.66-5.13,4.95-9.89,9.66-16.95,11,12.38-8.36,13.1-20.46,11.37-33.48-3.24,1.66-4.62,5.4-7.37,19.8-2.32-2.46-3.75-10.21-2.5-17.44,1.01-5.85,2.82-11.57,4.35-17.63-4.05,3.3-6.81,7.49-9.22,12,.46-9.54,5.89-16.54,12.52-23.76-6.72,1.04-12.74,2.7-19.01.76,1.17-.34,2.34-.7,3.51-1.01,10.12-2.7,16.8-8.71,19.54-19.14,2.97-11.31,8.66-21.21,17.08-29.44.52-.51.99-1.08,1.77-1.96-7.85-2.67-14.94-6.14-19.66-13.25,2.95.61,5.89,1.34,8.87,1.8,2.92.45,5.87.76,8.82.89,6.04.27,11.14-1.62,15.42-6.17,4.09-4.34,8.7-8.2,13.24-12.43-4.87-1.88-9.99-3.27-13.99-8.11,2.82.75,4.91,1.32,7,1.85,7.39,1.89,14.27.85,20.73-3.34,7.92-5.14,15.88-10.16,24.81-13.54,17.77-6.72,35.97-8.33,54.64-5.21,4.56.76,9.06,1.84,13.59,2.79,1.23.26,2.44.57,3.8.46-6.45-7.8-15.98-8.64-24.82-11.27,4.71,0,9.44-.21,14.13.05,7.24.4,14.32,1.8,20.98,4.82,4.71,2.13,8.94,4.99,11.97,9.22,1.72,2.41,3.34,2.9,6.19,1.93,6.09-2.08,12.39-2.06,18.61-.34,2,.55,3.87,1.56,5.79,2.84-3.94.98-8.23.32-11.91,3.13.78.42,1.21.74,1.69.89,15.64,4.99,27.3,15.29,37.09,27.99,7.64,9.91,12.9,21.14,17.51,32.7,1.37,3.44,2.83,6.85,4.43,10.18,4.38,9.11,11.49,14.01,21.8,13.85.96-.02,1.92.17,3.69.35-5.14,5.93-10.81,8.6-18.49,7.83,4.94,8.31,9.38,16.23,9.2,25.87-3.58-4.24-5.74-9.75-11.7-12.61,2.32,13.33,10.34,24.1,12.09,36.81-.22.09-.44.18-.66.27-1.61-2.93-3.21-5.87-4.82-8.8-.31.05-.61.09-.92.14,2.16,9.9,2.79,19.71-1.03,29.36-1.83-5.53-2.02-11.59-6.37-16.22,1.51,15.83-.62,30.83-9.29,44.48-.01-5.45,1.28-10.88-.94-16.36-.31.78-.61,1.58-.95,2.35-2.98,6.86-5.73,13.83-9.01,20.54-3.59,7.34-5.7,14.83-4.43,23.05.18,1.18.26,2.37.47,4.35-3.63-2.41-4.06-6.05-5.87-9.57-4.54,9.03-5.58,18.08-5.18,27.56-6.01-7.12-6.49-15.84-7.34-25.24-3.54,5.73-6.68,10.82-9.81,15.9-.3-.15-.61-.29-.91-.44.34-1.27.72-2.54,1.02-3.82,1.86-7.82,3.66-15.66,5.62-23.46.31-1.23,1.02-2.71,2.02-3.35,9.89-6.38,13.86-15.99,15.17-27.13.18-1.54.36-3.08.57-4.92,3.74.53,7.21,1.02,11.27,1.6-1.02-1.47-1.61-2.33-2.5-3.62,2.61.2,4.75.36,6.89.53.08-.19.16-.38.24-.58-6.5-3.98-13-7.96-19.5-11.94l-.58.42c1.79,2.41,3.58,4.83,5.43,7.32-2.83.13-5.85-1.54-9.77-5.56-2.64-2.7-5.11-5.57-8.2-8.95-1.51,9.15-2.2,18.06-6.46,25.93-.34-.02-.67-.03-1.01-.05v-11.76c-.35-.05-.71-.11-1.06-.16-2.68,10.16-4.78,20.58-12.21,28.71.99-8.28,3.86-16.27,2.83-24.88-5.12,8.46-10.28,16.76-17.96,23.03-.22-.13-.44-.25-.66-.38,1.1-2.92,2.2-5.85,3.3-8.77-.24-.14-.47-.27-.71-.41-2.85,3.18-5.56,6.5-8.58,9.51-2.97,2.96-6.26,5.61-9.41,8.4-.2-.18-.41-.37-.61-.55,1.94-4.79,3.87-9.59,5.81-14.38-.28-.2-.57-.41-.85-.61l-10.69,9.13c-.22-.15-.44-.3-.66-.45.48-1.01.91-2.05,1.44-3.03,3.19-5.95,5.38-12.24,5.61-19.01.46-13.79-4.71-25.06-15.69-33.54-.75-.58-1.7-.89-2.82-1.09,1.55,3.74,4.87,6.61,4.51,11.18-2.49-2.45-4.97-4.9-7.46-7.34l-.61.41c1.93,4.68,4.93,9.07,4.09,14.67-2.8-4.52-5.6-9.05-8.4-13.57-.32.13-.64.26-.97.39.87,3.07,1.75,6.13,2.62,9.2-.27.09-.53.18-.8.27-8.85-10.3-13.09-22.51-14.54-36.18-4.16,7.56-8.02,15.23-14.74,20.94,2.79-7.55,6.56-14.7,7.71-22.85-8.62,12.61-17.38,25.03-29.81,34.49,2.24-4.81,4.48-9.62,6.72-14.43-.28-.17-.57-.35-.85-.52-6.27,7.61-12.54,15.23-18.81,22.84-.35-.21-.69-.41-1.04-.62,2.48-5.29,4.97-10.58,7.45-15.86-.23-.12-.47-.23-.7-.35-7.78,8.29-12.71,18.27-16.33,29.02-.32-.07-.64-.14-.97-.21.22-2.69.36-5.4.7-8.08.34-2.7.88-5.37,1.01-8.15-3.04,3.75-4.61,8.15-5.42,12.73-.8,4.5-1.03,9.11-1.51,13.67-.28.1-.55.2-.83.31Zm.65-122.48c-9.9,7.2-19.07,44.7-13.49,54.25,1.37-2.58,2.77-4.85,3.83-7.27,2.74-6.27,2.81-12.97,2.82-19.64.02-8.77,2.01-17.05,5.86-24.91.38-.78.65-1.62.97-2.43Zm-27.17,12.29l-.81-.38c-.61.64-1.27,1.25-1.83,1.93-7.06,8.43-11.16,18.21-13.24,28.92-1.64,8.44-1.29,16.74,1.83,24.82.39,1,1.05,1.9,1.58,2.85-1.78-20.78,2.33-40.07,12.47-58.14Zm38.1,26.46c12.79-.52,39.09-21.99,38.92-31.5-.45.39-.81.64-1.1.95-6.37,6.92-13.83,12.46-21.7,17.56-4.41,2.86-8.53,6.17-12.7,9.37-1.18.9-2.08,2.17-3.43,3.61Zm41.07-49.21c-8.67,6.57-14.67,15.07-18.43,25.18,9.34-6.06,15.4-14.51,18.43-25.18Zm117.54,103.55c-5.07-7.09-9.8-13.71-14.85-20.77-.19,9.91,6.39,19.6,14.85,20.77Z"/>
  <path class="cls-1" d="m180.58,200.12c-1.35,9.8-6.41,17.6-11.58,25.34.18.19.36.38.54.57,3.72-1.72,7.44-3.44,11.16-5.15.23.18.46.36.69.54-2.58,3.79-5.15,7.57-7.73,11.36.14.25.28.49.42.74,4.58-2.11,9.15-4.23,14.15-6.53.65,3.77-1.91,6.64-2.14,10.44,9.94-5.56,16.98-13.69,24.28-21.69-.44,6.32-3.83,11.7-5.65,17.55.27.23.55.46.82.69,2.15-2.75,4.3-5.5,6.46-8.25.38.29.77.57,1.15.86v5.08c3.24-3.52,6.02-6.55,8.94-9.72,2.59,2.76,4.23,1.13,6.03-.84,5.92-6.5,11.97-12.89,16.06-21.04.07.53.26,1.08.2,1.59-.84,6.81-3.43,12.94-8.04,17.97-2.68,2.92-4.19,6.01-4.94,9.89-1.26,6.51-6.36,9.21-12.72,7.27-.6-.18-1.2-.33-1.83-.5-2.58,7.42-5.11,14.71-7.64,22,.22.14.44.27.66.41,1.91-2.51,3.83-5.01,5.73-7.53.61-.81,1.31-1.62,1.69-2.54,1.6-3.95,4.74-5.2,8.7-5.56,2.22-.2,3.01.45,2.63,2.52-1.14,6.18-2.31,12.36-3.53,18.53-.44,2.22-1.06,4.41-1.6,6.61.25.14.5.28.74.43,2.59-2.88,5.18-5.75,8.36-9.28.89,3,1.29,5.37,2.28,7.47,2.66,5.69.21,9.24-4.09,12.96-9.88,8.53-20.57,15.76-32.16,21.69-6.01,3.08-12.13,5.96-18.22,8.89-1.48.71-3.04,1.23-4.79,1.61,7.61-12.72,16.18-24.79,22.07-38.35-.2-.16-.41-.32-.61-.48-.68.54-1.43,1.02-2.04,1.64-15.53,15.71-34.1,27.2-52.99,38.25-3.83,2.24-7.65,4.53-11.59,6.57-9.02,4.68-18.1,4.09-26.9-.5-2.18-1.14-4.28-3.14-5.49-5.27-7.73-13.59-17.61-25.62-26.97-38.03-7.05-9.36-13.49-19.05-16.55-30.57-.59-2.21-1.03-4.47-1.6-6.99,1.3-.21,2.27-.43,3.25-.53,12.57-1.29,16.94-6.54,19.06-18.91.45-2.63.42-5.34.68-8.01.1-1.04.36-2.07.63-3.6,1.65,1.19,2.88,2.08,4.68,3.37-.37-1.97-.64-3.34-.89-4.7,3.53-1.22,8.12.83,9.43,4.16,1.08,2.76,2.05,5.56,3.16,8.3,4.53,11.22,12.89,17.7,24.82,19.18,5.38.67,10.92.93,16.31.45,13.56-1.22,20.94-8.49,23.43-22.25.21-1.18.67-2.42.5-3.56-.69-4.58,2.04-7.14,5.52-8.77,4.84-2.25,9.93-3.96,14.94-5.84.46-.17,1.07.04,2.14.11Zm-90.36,71.29c.14-.26.28-.53.41-.79-1.04-.7-2.09-1.38-3.11-2.1-2.11-1.49-4.27-2.91-6.28-4.52-2.13-1.7-2.93-3.93-2.22-6.67.6-2.32,1.2-4.66,1.54-7.03.71-5.01,1.25-10.05,1.86-15.08-.91.02-1.13.09-1.17.22-2.35,7.77-4.86,15.5-6.88,23.36-.44,1.72.37,4.36,1.56,5.77,3.67,4.38,8.99,5.71,14.28,6.84Zm.53,8.32c.38,1.26.47,1.8.7,2.26,1.95,3.89,8.23,6.38,12.75,4.79,3.07-1.08,6.04-1.2,9.24-.78,3.64.48,7.35.5,11.03.5,1.32,0,2.65-.65,3.97-1-.03-.29-.06-.57-.1-.86-6.93,1.23-13.38-.69-19.92-2.42-2.08-.55-4.55-.34-6.69.17-2.69.64-5.09.59-7.47-.78-.94-.54-1.91-1.04-3.51-1.9Zm25.02,14.9c-5.81.99-11.5,1.48-17.2-1.05,1.18,3.24,3.12,5.6,6.2,6.27,4.72,1.04,7.88-2.03,11-5.22Zm-21.31-28.39c0,.31.01.63.02.94,1.78.11,3.56.22,5.34.33-1.7-1.6-3.45-2.46-5.36-1.27Z"/>
  <path class="cls-1" d="m125.34,455.64c-6.02-19.87-7.75-39.94-2.09-60.18,2.23-7.98,5.61-15.55,11.28-21.74,2.46-2.69,5.53-4.86,8.51-6.99,1.29-.92,2.15-1.74,1.8-3.31-1.05-4.67-1.89-9.42-3.33-13.97-1.45-4.57-3.56-8.93-5.3-13.41-.62-1.6-1.03-3.29-1.61-5.21.6.23.84.24.88.35,4.07,9.99,10.26,19.12,12.15,29.98.4,2.28.56,4.59.88,6.88.46,3.37-.15,5.98-3.02,8.53-5.23,4.63-6.37,16.62-2.87,22.64,1.21,2.08,2.75,1.9,4.44.82,12.2-7.78,18.76-18.6,18.01-33.37-.39-7.72-3-14.83-6.08-21.79-2.42-5.46-2.91-11.07-1.31-16.79.26-.94,1.3-2.14,2.2-2.36,18.51-4.7,35.32-13.14,51.39-23.21,10.22-6.41,19.81-13.65,28.21-22.37,2.56-2.66,3.45-2.39,4.64,1.17,2.52,7.54,4.87,15.15,7.6,22.62,2.13,5.81,5,10.95,8.58,15.47,1.43,1.81,8.45,10.58,20.1,15.91,15.76,7.2,25.81,1.64,33.14,4.56,11.2,4.46,18.84,29.82,5,119-14,.33-28,.67-42,1m-105.42-65.19c17.82,1.77,32.67-1.88,43.32-16.99-14.96,4.26-28.2,11.95-43.32,16.99Z"/>
  <path class="cls-1" d="m134.01,187.07c-5.71,1.48-11.21,3.29-13.89,9.53,1.7-.67,3.4-1.34,5.33-2.09-1.14,4.32-2.23,8.44-3.31,12.56.35.13.7.26,1.05.39,3.44-5.06,5.76-11.05,11.17-14.39.95,3.32,1.79,6.33,2.72,9.31.05.16.79.1,1.07.13,0-2.45-.06-4.73.02-7,.08-2.39,1.23-3.61,3.8-3.74,6.15-.32,9.04,1.63,10.72,7.63.22.8.33,1.63.53,2.44,1.42,5.66-.23,7.16-6.74,6.66-1.24-.09-2.43-.8-3.64-1.23-1.15-.41-2.29-.82-3.44-1.23-.18.25-.35.51-.53.76.87.95,1.66,1.99,2.62,2.84,1.02.89,2.19,1.59,3.3,2.38-.06.32-.13.64-.19.97-3.45-.41-6.9-.83-10.2-1.22.86,1.94,4.41,3.82,8.75,3.72,3.35-.08,6.69-.9,10.04-1.4,1.16,5.49-2.58,17.31-10.03,20.16-12.63,4.83-25.06,3.82-36.89-2.72-2.17-1.2-3.83-3.33-5.75-5.04,2.89-2.91,3.34-5.73,1.88-9.14-1.58-3.68-4.7-5.84-7.74-8.13-.89-.67-1.82-1.82-1.95-2.85-1.11-8.54,2.39-14.28,10.52-17.29,6.57-2.43,13.41-3.58,20.42-3.47,3.39.05,6.77.41,10.16.62.06.29.12.58.18.87Z"/>
  <path class="cls-1" d="m60.19,191.49c-2.37-.16-4.73-.4-7.1-.42-.67,0-1.95.64-1.94.95.17,4.28.15,8.64,2.97,13.1.47-3.59.84-6.5,1.22-9.4.39,0,.77,0,1.16,0,2.05,2.94-.19,7.56,4.06,10.55v-10.03c8.32,2.48,11.69,8,10.71,17.02-3,.26-5.59-.57-7.51-2.98-1.1-1.38-2.1-1.66-3.39-.37,1.85,4.82,5.08,6.44,11.06,5.37.3,5.67-.07,11.24-3.6,15.83-1.46,1.89-4,3.4-6.34,4.08-5.89,1.69-11.93,1.43-17.77-.5-5.63-1.87-9.63-5.71-12.41-10.9-3.05-5.69-5.04-11.72-5.84-18.12-.79-6.27,1.72-10.85,7.5-13.46,7.79-3.52,15.85-5.02,24.29-2.54,1.08.32,2.08.92,3.12,1.38-.06.15-.12.29-.18.44Zm-9.31,42.79c-.85-11.81-2.16-23.23-5.99-34.68-5.43,2.73-10.55,5.25-15.58,7.92-.52.28-.91,1.6-.73,2.25,1.07,3.81,2.13,7.65,3.57,11.33,3.19,8.16,9.62,12.03,18.73,13.17Zm3.71-25.42c.1,3.9,1.34,7.06,4.66,9.1,2.69,1.65,5.46,1.59,8.41-.1-6.3-.28-9.57-4.72-13.07-9Z"/>
  <path class="cls-1" d="m172.25,191.61c.71-3.5,1.41-7,2.28-11.33,2.79,3.47,4.84,6.45,5.78,10.06.12.47-.6,1.57-1.13,1.74-5.8,1.87-11.63,3.65-17.48,5.37-.88.26-1.91.04-2.87.04l-.04-.69c1.69,0,3.21-1.97,5.72-1.97-3.14-3.21-6.35-2.37-9.53-3.88-1.47-.7-2.94-1.5-4.19-2.52-5.39-4.39-11.67-6.34-18.46-6.71-4.32-.24-8.66-.04-13.06-.39,4.41-4.13,9.99-5.48,15.59-6.78-.06-.35-.11-.69-.17-1.04-4.47.32-8.95.64-14.27,1.03,9.03-6.27,16.84-13.01,22.2-22.02,4.26,7.32,7.81,14.65,12.51,21.15,4.71,6.52,10.57,12.21,15.93,18.26l1.17-.3Z"/>
  <path class="cls-1" d="m87.82,198.25c1.11,4.28.76,5-2.12,4.76.64-1.43,1.23-2.75,2.12-4.76Z"/>
</svg>