<?xml version="1.0" encoding="UTF-8"?>
<svg id="Capa_1" data-name="Capa 1" xmlns="http://www.w3.org/2000/svg" viewBox="0 0 231.96 231.78">
  <defs>
    <style>
      .cls-1 {
        fill: #ce6ea9;
      }

      .cls-1, .cls-2, .cls-3 {
        stroke-width: 0px;
      }

      .cls-2 {
        fill: #5c4e9b;
      }

      .cls-3 {
        fill: #262525;
      }
    </style>
  </defs>
  <path class="cls-3" d="m115.89,231.78c-15.19,0-30.37,0-45.56,0-3.32,0-6.63-.25-9.91-.74-6.11-.92-12.04-2.56-17.71-5.04-6.98-3.04-13.32-7.08-19-12.15-4.58-4.08-8.57-8.65-11.95-13.76-5.38-8.14-8.96-17-10.63-26.63-.41-2.37-.69-4.74-.88-7.14-.21-2.51-.23-5.03-.23-7.54,0-29.63-.02-59.26.02-88.89,0-6.03.88-11.97,2.47-17.8,1.33-4.91,3.17-9.62,5.54-14.12,2.5-4.76,5.51-9.18,9.02-13.27,4.38-5.1,9.37-9.49,14.98-13.18,7.97-5.23,16.66-8.67,26.02-10.39,3.26-.6,6.55-.9,9.87-1.04,2.78-.12,5.55-.09,8.33-.09C104.36,0,132.47,0,160.57,0c9.92,0,19.48,1.83,28.6,5.79,5.99,2.6,11.53,5.95,16.6,10.08,1.81,1.48,3.57,3.02,5.22,4.66,4.48,4.48,8.34,9.46,11.51,14.96,4.03,7.02,6.78,14.52,8.24,22.48.58,3.18.97,6.4,1.02,9.65.36,21.24.07,42.49.15,63.73.04,10.17.09,20.34-.02,30.51-.09,7.8-1.41,15.43-4.04,22.81-2.48,6.92-5.91,13.33-10.38,19.17-1.59,2.09-3.31,4.06-5.11,5.98-4.92,5.22-10.54,9.54-16.79,13.04-5.86,3.28-12.08,5.64-18.63,7.15-3.19.74-6.43,1.2-9.69,1.51-1.7.16-3.42.24-5.14.24-15.41.02-30.81.01-46.22.01Zm6.35-88.24c.19-.05.31-.19.38-.37.73-.1,1.44-.23,2.11-.54,1.97-.94,4.02-1.69,6.04-2.51,4.5-1.83,8.73-4.2,13.07-6.35.46-.22.92-.47,1.29-.81.43-.4.99-.58,1.42-.92.93-.71,2.13-.99,2.88-1.94.2-.15.4-.32.62-.45,2.43-1.34,4.59-3.04,6.7-4.84,2.15-1.85,4.35-3.64,6.49-5.51.58-.51,1.31-.97,1.4-1.87.28-.17.57-.32.83-.52,1.51-1.15,2.71-2.61,3.88-4.09.12-.03.2-.11.22-.24h0c.13-.03.19-.1.2-.22h0c1.6-1.71,3-3.57,4.3-5.5.55-.81.97-1.72,1.59-2.48.89-1.08,1.49-2.33,2.2-3.51,1.04-1.71,1.97-3.5,2.72-5.36.71-1.76,1.69-3.41,2.2-5.24.52-1.86,1.22-3.66,1.76-5.51.58-1.96.99-3.96,1.48-5.93.35-1.41.29-2.89.6-4.32.75-3.39,1.01-6.84,1.12-10.31.03-1.1-.11-2.18-.18-3.27-.15-2.22-.27-4.44-.64-6.63-.23-1.34-.8-2.57-1.18-3.86.04-.34.13-.7-.34-.95v2.88c-.02.44-.07.88-.04,1.31.1,1.55-.2,3.06-.57,4.54-.91,3.7-2.14,7.28-3.95,10.65-1.51,2.81-3.29,5.41-5.3,7.88-2.07,2.54-4.67,4.51-7.03,6.72-3.7,3.48-7.92,6.32-12.3,8.89-4.44,2.6-8.99,4.99-13.78,6.88-.78.31-1.5.75-2.29.98-1.2.35-2.32.87-3.49,1.3-2.8,1.04-5.46,2.43-8.35,3.26-2.16.62-4.22,1.55-6.42,2.04-1.2.27-2.4.61-3.6.87-2.64.56-5.26,1.17-7.88,1.81-2.08.51-4.19.95-6.2,1.7-1.26.37-2.52.71-3.77,1.11-.97.31-1.93.67-2.88,1.04-1.15.46-2.26,1.02-3.43,1.43-1.82.65-3.52,1.58-5.24,2.43-2.38,1.18-4.76,2.36-6.99,3.83-2.04,1.34-4.16,2.57-6.07,4.09-.4.32-.8.64-1.24.9-1.97,1.21-3.68,2.77-5.34,4.33-1.61,1.5-3.42,2.86-4.65,4.75-2.4,2.02-4.09,4.66-5.98,7.11-2.17,2.8-3.92,5.88-5.5,9.05-.56,1.13-1.28,2.19-1.65,3.42-2.1,4.17-3.52,8.6-4.78,13.06-1.26,4.48-1.72,9.14-2.75,13.67.21,4.65-.95,9.25-.51,13.99.34-.21.35-.46.37-.71.05-.77.24-1.51.49-2.24.71-2.07,1.43-4.15,2.17-6.21,1.99-5.48,4.25-10.81,7.97-15.41,2.41-2.99,4.99-5.78,8.14-8.03,3.38-2.41,6.91-4.51,10.89-5.79,1.81-.58,3.55-1.36,5.37-1.89,2.07-.59,4.12-1.25,6.21-1.75,1.1-.26,2.18-.6,3.29-.81.97-.19,1.91-.47,2.85-.76.75-.23,1.52-.41,2.3-.55,3.02-.52,6.02-1.17,8.99-1.91,1.59-.4,3.17-.85,4.77-1.2,2.14-.47,4.25-1.04,6.29-1.81.61-.23,1.22-.43,1.85-.55"/>
  <path class="cls-1" d="m185.75,50.44c-.24.27-.15.6-.17.91-.02.34.1.71-.17,1.02,0-.94,0-1.88,0-2.88.47.25.38.61.34.95Z"/>
  <path class="cls-2" d="m169.57,112.58c0-.13.08-.2.2-.21,0,.13-.08.2-.2.21Z"/>
  <path class="cls-2" d="m169.34,112.83c0-.14.08-.22.22-.24-.02.13-.1.21-.22.24Z"/>
</svg>