<?xml version="1.0" encoding="UTF-8"?>
<svg id="Capa_1" data-name="Capa 1" xmlns="http://www.w3.org/2000/svg" viewBox="0 0 175.12 175.06">
  <defs>
    <style>
      .cls-1 {
        fill: #fff;
        stroke-width: 0px;
      }
    </style>
  </defs>
  <path class="cls-1" d="m4.13,159.95C.94,153.85-.03,147.37,0,140.5.14,104.06.16,67.62.04,31.18,0,16.57,10.15,4.75,22.35,1.32,25.11.54,27.88.04,30.77.05c35.56.02,71.12-.22,106.68.2,7.29.09,15.03-.55,21.91,3.78,9.39,5.91,14.56,14.22,15.76,25.14-.06.74-.18,1.47-.18,2.21,0,37.19.03,74.38.02,111.57,0,18.62-13.32,32.06-31.83,32.08-37.43.03-74.85.01-112.28.03-3.02,0-5.9-.56-8.79-1.38-7.8-2.24-13.22-7.5-17.94-13.73Zm28.14-73.19h.02c0,8.71-.03,17.42.01,26.14.02,3.72-1.25,8.69.63,10.83,2.17,2.47,7.27.54,11.07.91,2.87.28,3.91-.6,3.81-3.67-.23-7.34-.02-14.68-.12-22.03-.03-2.05.56-2.89,2.73-2.81,4.1.16,8.22-.09,12.31.14,16.31.92,28.19-9.2,27.27-25.3-.7-12.21-8.56-21.07-20.74-21.42-11.31-.33-22.64-.19-33.96-.4-2.55-.05-3.1.91-3.08,3.26.1,11.45.05,22.9.05,34.35Zm84.95-17.82c-2.11,0-4.24-.14-6.34.02-9,.72-16.18,6.84-17.13,14.48-1.01,8.11,3.24,13.85,12.72,17.17,5.87,2.06,11.96,3.3,17.98,4.8,1.67.42,3.05,1.26,3.43,3.03.36,1.65,0,3.15-1.35,4.41-3.99,3.72-15.61,3.29-17.87-1.52-2.35-5.01-5.43-4.58-9.41-3.64-1.45.34-2.95.56-4.43.62-3.06.12-3.08,1.56-2.04,3.89,2.01,4.48,5.03,8.09,9.42,10.21,9.45,4.55,19.31,4.66,28.96,1.05,8.83-3.3,12.96-11.41,11.07-19.94-1.59-7.21-7.5-9.39-13.44-11.46-6.1-2.13-12.63-2.7-18.64-5.19-3.19-1.33-3.94-3.63-1.83-5.62,3.14-2.96,14.43-2.84,16.61.88,2.44,4.16,5.3,3.32,8.67,2.51,1.57-.38,3.16-.76,4.76-.86,2.02-.12,2.63-.64,1.76-2.74-1.63-3.94-4.04-7.11-7.76-9.21-4.71-2.66-9.88-3.16-15.15-2.87Z"/>
  <path class="cls-1" d="m47.88,72.52c0-3.33-1.31-7.83.34-9.69,1.95-2.21,6.54-.54,9.97-.7,2.73-.13,5.47-.07,8.15.59,5.06,1.25,7.99,5.12,7.85,10.31-.14,4.96-3.23,8.52-8.3,9.51-5.41,1.06-10.89.46-16.34.68-1.57.06-1.81-.83-1.78-2.13.05-2.86.02-5.71.02-8.57.04,0,.07,0,.11,0Z"/>
</svg>