<?xml version="1.0" encoding="UTF-8"?>
<svg id="Capa_1" data-name="Capa 1" xmlns="http://www.w3.org/2000/svg" viewBox="0 0 292.11 285.97">
  <defs>
    <style>
      .cls-1 {
        fill: #fff;
        stroke-width: 0px;
      }
    </style>
  </defs>
  <path class="cls-1" d="m292.11,152.69c-1.28,3.96-1.28,8.16-2.23,12.19-2.51,10.59-5.96,20.82-11.25,30.37-6.16,11.13-15.6,16.31-28.31,16.26-33.51-.13-67.01-.06-100.52-.05-4.54,0-3.95-.6-3.98,3.89-.04,4.74,0,4.74,4.83,4.74,20.85,0,41.69.03,62.54-.07,2.32-.01,3.08.49,3.02,2.94-.17,7.52-.1,15.04-.05,22.56.06,9.94-4.06,17.8-11.73,23.94-8.8,7.04-19.29,10.18-29.95,12.84-13.87,3.47-28.01,4.65-42.17,2.79-14.93-1.95-29.64-5.08-42.41-13.83-9.59-6.57-14.71-15.35-14.5-27.4.34-20.55.46-41.13-.01-61.68-.44-19.08,15.95-35.92,35.91-35.77,23.13.17,46.26.1,69.39,0,20.54-.08,38.32-14.21,43.19-34.11.77-3.17.99-6.38.99-9.62-.01-9.04,0-18.09,0-27.13,0-1.29-.35-2.79,1.82-2.74,9.51.21,19.03-.43,28.53.33,10.63.86,18.23,6.5,23.71,15.33,5.36,8.64,7.63,18.37,9.75,28.14,1.39,6.41,2.41,12.89,2.9,19.44.03.47,0,.96.53,1.21v15.42Zm-107.77,110.68c8.24,0,14.15-5.47,14.12-13.09-.03-7.13-5.93-12.95-13.18-12.92-8.29.04-12.96,6.91-13.15,12.88-.22,6.81,6.86,13.76,12.21,13.13Z"/>
  <path class="cls-1" d="m95.05,72.84c15.99,0,31.98-.05,47.96.05,2.28.01,2.88-.65,2.83-2.87-.12-5.82-.01-5.82-5.81-5.82-20.65,0-41.3-.04-61.95.04-2.26,0-2.9-.6-2.84-2.85.25-9.8-.22-19.6.36-29.39.69-11.79,6.18-20.06,17.32-24.47,10.74-4.26,22.03-5.77,33.4-6.73,14.73-1.24,29.46-1.05,44.17.53,10.26,1.1,20.4,2.63,29.21,8.62,10.71,7.29,16.64,17.05,16.51,30.38-.21,20.46-.05,40.92-.06,61.38,0,20.99-15.13,36.09-36.2,36.12-22.65.03-45.3,0-67.95,0-20.78,0-37.31,11.93-44.06,31.62-1.22,3.55-1.42,7.12-1.42,10.76-.02,9.52-.07,19.03.04,28.55.02,2.08-.44,2.81-2.65,2.72-8.65-.32-17.32.43-25.95-.42-12.3-1.22-20.83-8.02-26.84-18.43-5.03-8.72-6.89-18.44-8.86-28.13C-1.96,143.68-.08,123.17,6.35,103.14c6.1-19.01,22.25-30.14,42.74-30.26,15.32-.09,30.64-.02,45.97-.02v-.02Zm11.21-25.9c7.13-.04,13.12-6.02,13.09-13.07-.03-7.03-6.13-13.04-13.2-12.98-7.19.06-13.19,5.91-13.25,12.95-.07,7.12,6.07,13.15,13.36,13.1Z"/>
</svg>