<?xml version="1.0" encoding="UTF-8"?>
<svg id="Capa_1" data-name="Capa 1" xmlns="http://www.w3.org/2000/svg" viewBox="0 0 469.19 469.26">
  <defs>
    <style>
      .cls-1 {
        fill: #fff;
        stroke-width: 0px;
      }
    </style>
  </defs>
  <path class="cls-1" d="m469.19,234.57c.07,129.33-105.4,234.8-234.68,234.68C105.1,469.14-.22,363.69,0,234.43.22,105.09,105.06.25,234.42,0c129.22-.25,234.71,105.15,234.78,234.57ZM113.78,161.93c.43,21.49,4.06,38.89,11.51,55.23,23.9,52.38,62.35,91.38,112.02,119.59,20.35,11.56,42.45,17.97,66.02,18.62,12.5.35,23-3.74,31.59-13.12,11.83-12.92,17.67-28.14,19.72-45.35.7-5.85-1-10.04-4.62-13.9-10.99-11.71-24.39-19.4-39.98-23.14-3.51-.84-7.6-1.69-10.79.3-10.75,6.7-20.11,14.77-24.05,27.53-1.08,3.48-2.59,6.83-3.8,10.27-.72,2.04-1.42,2.72-3.9,1.82-45.65-16.53-78.02-47.11-97.33-91.58-4-9.21-3.99-9.51,5.74-12.3,13.19-3.79,23.59-10.81,30.94-22.73,2.5-4.06,3.68-7.75,2.78-12.09-3.7-17.87-12.37-32.82-26.58-44.42-1.82-1.49-4.01-2.85-6.34-2.61-16.58,1.69-32.27,5.76-45.61,16.63-11.12,9.05-18.05,19.9-17.31,31.25Z"/>
</svg>