<?xml version="1.0" encoding="UTF-8"?>
<svg id="Capa_1" data-name="Capa 1" xmlns="http://www.w3.org/2000/svg" viewBox="0 0 77.24 76.81">
  <defs>
    <style>
      .cls-1 {
        fill: #fff;
        stroke-width: 0px;
      }
    </style>
  </defs>
  <path class="cls-1" d="m54.5,76.25c-.57-.17-1-.55-1.42-.93-4.52-4.12-9.04-8.24-13.56-12.36-5.39-4.91-10.79-9.81-16.16-14.75-.55-.51-.87-.46-1.42-.03-4.05,3.1-8.12,6.17-12.18,9.25-1.72,1.3-3.1,1.24-4.72-.2-1.28-1.15-2.56-2.3-3.81-3.48-1.62-1.52-1.63-3.5,0-5.01,3.47-3.19,6.97-6.35,10.45-9.54,1-.92,1.01-.7.03-1.59-3.41-3.12-6.84-6.22-10.24-9.34-1.95-1.78-1.92-3.66.04-5.46,1.2-1.1,2.39-2.21,3.61-3.28,1.54-1.36,2.94-1.41,4.57-.18,4.12,3.11,8.24,6.22,12.34,9.36.52.4.8.36,1.27-.07,9.88-9.03,19.78-18.04,29.68-27.05.35-.32.69-.67,1.15-.84,3.07-.33,3.87,1.42,3.84,3.72-.06,5.11-.02,10.23-.02,15.34,0,.41.05.83-.18,1.2-.33.25-.65.51-.98.76-7.08,5.37-14.15,10.74-21.24,16.09-.54.41-.62.58-.04,1.07,1.12.96,2.34,1.75,3.51,2.64,4.22,3.18,8.42,6.4,12.65,9.57,2.08,1.56,4.08,3.25,6.28,4.65,0,5.7-.06,11.4.06,17.1.04,1.81-1.5,3.62-3.49,3.36Z"/>
  <path class="cls-1" d="m54.5,76.25c1.99.26,3.53-1.56,3.49-3.36-.12-5.7-.05-11.4-.06-17.1,0-11.23,0-22.47-.01-33.7,0-.36.17-.76-.17-1.08.23-.38.18-.79.18-1.2,0-5.11-.05-10.23.02-15.34.03-2.3-.77-4.05-3.84-3.72,1.4-.92,2.89-.96,4.36-.27,5.41,2.56,10.81,5.14,16.18,7.79,1.74.86,2.59,2.41,2.59,4.36,0,17.17,0,34.33,0,51.5,0,1.99-.86,3.57-2.63,4.44-5.37,2.65-10.77,5.22-16.18,7.78-1.28.61-2.64.66-3.93-.09Z"/>
</svg>